<?xml version="1.0" encoding="UTF-8"?>
<svg width="12px" height="12px" viewBox="0 0 12 12" version="1.1" xmlns="http://www.w3.org/2000/svg" xmlns:xlink="http://www.w3.org/1999/xlink">
    <!-- Generator: Sketch 39.1 (31720) - http://www.bohemiancoding.com/sketch -->
    <title>add</title>
    <desc>Created with Sketch.</desc>
    <defs></defs>
    <g id="mobile" stroke="none" stroke-width="1" fill="none" fill-rule="evenodd" opacity="0.60694067">
        <g id="iPhone-6-Plus" transform="translate(-23.000000, -782.000000)" fill="#000000">
            <g id="Group-10" transform="translate(0.000000, 467.000000)">
                <g id="Group-9">
                    <g id="Group-6" transform="translate(15.000000, 58.000000)">
                        <g id="Group-8" transform="translate(8.000000, 244.000000)">
                            <g id="add" transform="translate(0.000000, 13.000000)">
                                <g id="Capa_1">
                                    <path d="M11.3455366,5.16131707 L6.8352439,5.16131707 L6.8352439,0.651 C6.8352439,0.445536585 6.5562439,2.43902439e-05 5.99826829,2.43902439e-05 C5.44029268,2.43902439e-05 5.16129268,0.445560976 5.16129268,0.651 L5.16129268,5.16134146 L0.65097561,5.16134146 C0.445536585,5.16131707 0,5.44031707 0,5.99826829 C0,6.55621951 0.445536585,6.8352439 0.65097561,6.8352439 L5.16131707,6.8352439 L5.16131707,11.3455854 C5.16131707,11.551 5.44029268,11.996561 5.99829268,11.996561 C6.55629268,11.996561 6.83526829,11.551 6.83526829,11.3455854 L6.83526829,6.8352439 L11.3456098,6.8352439 C11.5510244,6.8352439 11.9965854,6.55626829 11.9965854,5.99826829 C11.9965854,5.44026829 11.5509756,5.16131707 11.3455366,5.16131707 L11.3455366,5.16131707 Z" id="Shape"></path>
                                </g>
                            </g>
                        </g>
                    </g>
                </g>
            </g>
        </g>
    </g>
</svg>