<?xml version="1.0" encoding="UTF-8"?>
<svg width="51px" height="40px" viewBox="0 0 51 40" version="1.1" xmlns="http://www.w3.org/2000/svg" xmlns:xlink="http://www.w3.org/1999/xlink">
    <!-- Generator: Sketch 39.1 (31720) - http://www.bohemiancoding.com/sketch -->
    <title>baglan</title>
    <desc>Created with Sketch.</desc>
    <defs></defs>
    <g id="mobile" stroke="none" stroke-width="1" fill="none" fill-rule="evenodd">
        <g id="iPhone-6-Plus" transform="translate(-82.000000, -2220.000000)">
            <g id="Group-22" transform="translate(13.000000, 2200.000000)">
                <g id="Group-14" transform="translate(2.000000, 0.000000)">
                    <g id="baglan" transform="translate(67.000000, 20.000000)">
                        <path d="M6.95595754,25.2400855 C16.6163047,39.001393 16.1301852,35.5702979 25.4225156,38.8737634 C43.0822406,45.1518755 61.405701,15.2608461 42.3523075,18.4354058 C23.2989141,21.6099654 39.2271654,0.306510338 27.2966493,0.306510338 C26.5489579,0.306510338 19.891528,5.64400356 19.130178,5.63986669 C7.74306962,5.57799376 1.18172332,0.0935071632 1.18172332,11.2763318 C1.18172332,16.9291568 -2.70438959,11.4787779 6.95595754,25.2400855 Z" id="Oval-3" fill-opacity="0.07" fill="#FF7377"></path>
                        <g id="wifi" transform="translate(10.140845, 11.830986)" fill="#FF585B">
                            <g id="Capa_1">
                                <g id="Group">
                                    <path d="M29.8749209,6.66327722 C25.9129315,2.68169014 20.6359314,0.489178976 15.0175973,0.489178976 C9.39926331,0.489178976 4.1228102,2.6811405 0.160273768,6.66327722 C-0.0536069257,6.87818619 -0.0536069257,7.22555823 0.160273768,7.44046719 C0.374154461,7.65537616 0.719864431,7.65537616 0.933745124,7.44046719 C4.68951198,3.66609413 9.69136636,1.58790794 15.0175973,1.58790794 C20.3438283,1.58790794 25.3456827,3.66609413 29.1014495,7.43991755 C29.2081164,7.54709722 29.3481508,7.60096187 29.4881852,7.60096187 C29.6282196,7.60096187 29.7682541,7.54709722 29.8749209,7.43991755 C30.0888016,7.22555823 30.0888016,6.87763655 29.8749209,6.66327722 L29.8749209,6.66327722 Z" id="Shape"></path>
                                    <path d="M3.37559529,9.89350739 C3.1617146,10.1084164 3.1617146,10.4557884 3.37559529,10.6706974 C3.48226213,10.777877 3.62229655,10.8317417 3.76233097,10.8317417 C3.90236539,10.8317417 4.04239981,10.777877 4.14906665,10.6706974 C10.1415551,4.64884919 19.8925455,4.64884919 25.885581,10.6706974 C26.0994617,10.8856063 26.4451717,10.8856063 26.6590524,10.6706974 C26.8729331,10.4557884 26.8729331,10.1084164 26.6590524,9.89350739 C20.2404435,3.44403985 9.79529815,3.44294057 3.37559529,9.89350739 L3.37559529,9.89350739 Z" id="Shape"></path>
                                    <path d="M15.0175973,9.62308485 C11.8312673,9.62308485 8.83912564,10.8669186 6.59146383,13.1248368 C6.37758313,13.3397458 6.37758313,13.6871178 6.59146383,13.9020268 C6.80534452,14.1169358 7.15105449,14.1169358 7.36493518,13.9020268 C9.40582743,11.8518722 12.1233704,10.7223634 15.0175973,10.7223634 C17.9118243,10.7223634 20.6293672,11.8518722 22.6702595,13.9020268 C22.7769263,14.0092065 22.9169607,14.0630711 23.0569952,14.0630711 C23.1970296,14.0630711 23.337064,14.0092065 23.4437308,13.9020268 C23.6576115,13.6871178 23.6576115,13.3397458 23.4437308,13.1248368 C21.196616,10.8669186 18.2039274,9.62308485 15.0175973,9.62308485 L15.0175973,9.62308485 Z" id="Shape"></path>
                                    <path d="M15.0175973,14.7940914 C13.0417992,14.7940914 11.4341385,16.4094813 11.4341385,18.3953281 C11.4341385,20.3811749 13.0417992,21.9965648 15.0175973,21.9965648 C16.9939425,21.9965648 18.6016032,20.3811749 18.6016032,18.3953281 C18.6016032,16.4094813 16.9939425,14.7940914 15.0175973,14.7940914 L15.0175973,14.7940914 Z M15.0175973,20.8967365 C13.6446036,20.8967365 12.5281573,19.7743731 12.5281573,18.3947784 C12.5281573,17.0151838 13.6451506,15.8928203 15.0175973,15.8928203 C16.390044,15.8928203 17.5075843,17.0151838 17.5075843,18.3947784 C17.5075843,19.7743731 16.390591,20.8967365 15.0175973,20.8967365 L15.0175973,20.8967365 Z" id="Shape"></path>
                                </g>
                            </g>
                        </g>
                    </g>
                </g>
            </g>
        </g>
    </g>
</svg>