<?xml version="1.0" encoding="iso-8859-1"?>
<!-- Generator: Adobe Illustrator 19.0.0, SVG Export Plug-In . SVG Version: 6.00 Build 0)  -->
<svg xmlns="http://www.w3.org/2000/svg" xmlns:xlink="http://www.w3.org/1999/xlink" version="1.1" id="Layer_1" x="0px" y="0px" viewBox="0 0 512 512" style="enable-background:new 0 0 512 512;" xml:space="preserve" width="512px" height="512px">
<g>
	<g>
		<rect x="96" y="96" width="192" height="64" fill="#FFFFFF"/>
	</g>
</g>
<g>
	<g>
		<path d="M272,288h32c1.91,0,3.685,0.473,5.382,1.086c20.905-16.905,46.473-28.303,74.618-31.469V48c0-26.468-21.532-48-48-48H48    C21.532,0,0,21.532,0,48v416c0,26.468,21.532,48,48,48h262.607C277.596,485.589,256,445.469,256,400    c0-29.795,9.445-57.145,25.045-80H272c-8.844,0-16-7.156-16-16C256,295.156,263.156,288,272,288z M112,448H80    c-8.844,0-16-7.156-16-16c0-8.844,7.156-16,16-16h32c8.844,0,16,7.156,16,16C128,440.844,120.844,448,112,448z M112,384H80    c-8.844,0-16-7.156-16-16c0-8.844,7.156-16,16-16h32c8.844,0,16,7.156,16,16C128,376.844,120.844,384,112,384z M112,320H80    c-8.844,0-16-7.156-16-16c0-8.844,7.156-16,16-16h32c8.844,0,16,7.156,16,16C128,312.844,120.844,320,112,320z M208,448h-32    c-8.844,0-16-7.156-16-16c0-8.844,7.156-16,16-16h32c8.844,0,16,7.156,16,16C224,440.844,216.844,448,208,448z M208,384h-32    c-8.844,0-16-7.156-16-16c0-8.844,7.156-16,16-16h32c8.844,0,16,7.156,16,16C224,376.844,216.844,384,208,384z M208,320h-32    c-8.844,0-16-7.156-16-16c0-8.844,7.156-16,16-16h32c8.844,0,16,7.156,16,16C224,312.844,216.844,320,208,320z M208,256H80    c-8.844,0-16-7.156-16-16s7.156-16,16-16h128c8.844,0,16,7.156,16,16S216.844,256,208,256z M80,192c-8.844,0-16-7.156-16-16V80    c0-8.844,7.156-16,16-16h224c8.844,0,16,7.156,16,16v96c0,8.844-7.156,16-16,16H80z M272,224h32c8.844,0,16,7.156,16,16    s-7.156,16-16,16h-32c-8.844,0-16-7.156-16-16S263.156,224,272,224z" fill="#FFFFFF"/>
	</g>
</g>
<g>
	<g>
		<path d="M400,288c-61.75,0-112,50.25-112,112s50.25,112,112,112s112-50.25,112-112S461.75,288,400,288z M464,416h-64    c-8.844,0-16-7.156-16-16v-64c0-8.844,7.156-16,16-16c8.844,0,16,7.156,16,16v48h48c8.844,0,16,7.156,16,16    C480,408.844,472.844,416,464,416z" fill="#FFFFFF"/>
	</g>
</g>
<g>
</g>
<g>
</g>
<g>
</g>
<g>
</g>
<g>
</g>
<g>
</g>
<g>
</g>
<g>
</g>
<g>
</g>
<g>
</g>
<g>
</g>
<g>
</g>
<g>
</g>
<g>
</g>
<g>
</g>
</svg>
