<?xml version="1.0" encoding="UTF-8"?>
<svg width="25px" height="18px" viewBox="0 0 25 18" version="1.1" xmlns="http://www.w3.org/2000/svg" xmlns:xlink="http://www.w3.org/1999/xlink">
    <!-- Generator: Sketch 39.1 (31720) - http://www.bohemiancoding.com/sketch -->
    <title>credit-card (1)</title>
    <desc>Created with Sketch.</desc>
    <defs></defs>
    <g id="mobile" stroke="none" stroke-width="1" fill="none" fill-rule="evenodd">
        <g id="signUpMailForm" transform="translate(-346.000000, -896.000000)" fill="#888888">
            <g id="Group-5" transform="translate(33.000000, 766.000000)">
                <g id="Group-4" transform="translate(0.000000, 51.000000)">
                    <g id="inputCardNumber" transform="translate(0.000000, 66.000000)">
                        <g id="credit-card-(1)" transform="translate(313.000000, 13.000000)">
                            <g id="Capa_1">
                                <g id="Group">
                                    <path d="M19.6363636,2.45454545 C19.1143636,2.45454545 18.6263182,2.59731818 18.2045455,2.84195455 C17.7827727,2.59731818 17.2947273,2.45454545 16.7727273,2.45454545 C15.1940455,2.45454545 13.9090909,3.73909091 13.9090909,5.31818182 C13.9090909,6.89727273 15.1940455,8.18181818 16.7727273,8.18181818 C17.2947273,8.18181818 17.7827727,8.03904545 18.2045455,7.79440909 C18.6263182,8.03904545 19.1143636,8.18181818 19.6363636,8.18181818 C21.2150455,8.18181818 22.5,6.89727273 22.5,5.31818182 C22.5,3.73909091 21.2150455,2.45454545 19.6363636,2.45454545 L19.6363636,2.45454545 Z M18.8181818,5.31818182 C18.8181818,5.88845455 18.5825455,6.40390909 18.2045455,6.77536364 C17.8265455,6.40390909 17.5909091,5.88845455 17.5909091,5.31818182 C17.5909091,4.74790909 17.8265455,4.23245455 18.2045455,3.861 C18.5825455,4.23245455 18.8181818,4.74790909 18.8181818,5.31818182 L18.8181818,5.31818182 Z M14.7272727,5.31818182 C14.7272727,4.19031818 15.6448636,3.27272727 16.7727273,3.27272727 C17.0308636,3.27272727 17.2759091,3.32590909 17.5037727,3.41386364 C17.0509091,3.92031818 16.7727273,4.58672727 16.7727273,5.31818182 C16.7727273,6.04963636 17.0509091,6.71604545 17.5037727,7.2225 C17.2759091,7.31045455 17.0308636,7.36363636 16.7727273,7.36363636 C15.6448636,7.36363636 14.7272727,6.44604545 14.7272727,5.31818182 L14.7272727,5.31818182 Z M19.6363636,7.36363636 C19.3782273,7.36363636 19.1331818,7.31045455 18.9053182,7.2225 C19.3581818,6.71604545 19.6363636,6.04963636 19.6363636,5.31818182 C19.6363636,4.58672727 19.3581818,3.92031818 18.9053182,3.41386364 C19.1331818,3.32590909 19.3782273,3.27272727 19.6363636,3.27272727 C20.7642273,3.27272727 21.6818182,4.19031818 21.6818182,5.31818182 C21.6818182,6.44604545 20.7642273,7.36363636 19.6363636,7.36363636 L19.6363636,7.36363636 Z" id="Shape"></path>
                                    <path d="M22.8203182,0 L1.72513636,0 C0.774,0 0,0.774 0,1.72513636 L0,16.2748636 C0,17.226 0.774,18 1.72513636,18 L22.8203182,18 C23.7714545,18 24.5454545,17.226 24.5454545,16.2748636 L24.5454545,1.72513636 C24.5454545,0.774 23.7714545,0 22.8203182,0 L22.8203182,0 Z M23.7272727,16.2748636 C23.7272727,16.7747727 23.3206364,17.1818182 22.8203182,17.1818182 L1.72513636,17.1818182 C1.22481818,17.1818182 0.818181818,16.7747727 0.818181818,16.2748636 L0.818181818,1.72513636 C0.818181818,1.22522727 1.22481818,0.818181818 1.72513636,0.818181818 L22.8203182,0.818181818 C23.3206364,0.818181818 23.7272727,1.22522727 23.7272727,1.72513636 L23.7272727,16.2748636 L23.7272727,16.2748636 Z" id="Shape"></path>
                                    <path d="M2.45454545,4.09090909 L6.13636364,4.09090909 C6.36259091,4.09090909 6.54545455,3.90763636 6.54545455,3.68181818 C6.54545455,3.456 6.36259091,3.27272727 6.13636364,3.27272727 L2.45454545,3.27272727 C2.22831818,3.27272727 2.04545455,3.456 2.04545455,3.68181818 C2.04545455,3.90763636 2.22831818,4.09090909 2.45454545,4.09090909 L2.45454545,4.09090909 Z" id="Shape"></path>
                                    <path d="M11.4545455,3.27272727 L7.77272727,3.27272727 C7.5465,3.27272727 7.36363636,3.456 7.36363636,3.68181818 C7.36363636,3.90763636 7.5465,4.09090909 7.77272727,4.09090909 L11.4545455,4.09090909 C11.6807727,4.09090909 11.8636364,3.90763636 11.8636364,3.68181818 C11.8636364,3.456 11.6807727,3.27272727 11.4545455,3.27272727 L11.4545455,3.27272727 Z" id="Shape"></path>
                                    <path d="M2.45454545,6.13636364 L2.86363636,6.13636364 C3.08986364,6.13636364 3.27272727,5.95309091 3.27272727,5.72727273 C3.27272727,5.50145455 3.08986364,5.31818182 2.86363636,5.31818182 L2.45454545,5.31818182 C2.22831818,5.31818182 2.04545455,5.50145455 2.04545455,5.72727273 C2.04545455,5.95309091 2.22831818,6.13636364 2.45454545,6.13636364 L2.45454545,6.13636364 Z" id="Shape"></path>
                                    <path d="M4.5,5.31818182 C4.27377273,5.31818182 4.09090909,5.50145455 4.09090909,5.72727273 C4.09090909,5.95309091 4.27377273,6.13636364 4.5,6.13636364 L5.31818182,6.13636364 C5.54440909,6.13636364 5.72727273,5.95309091 5.72727273,5.72727273 C5.72727273,5.50145455 5.54440909,5.31818182 5.31818182,5.31818182 L4.5,5.31818182 L4.5,5.31818182 Z" id="Shape"></path>
                                    <path d="M7.77272727,5.72727273 C7.77272727,5.50145455 7.58986364,5.31818182 7.36363636,5.31818182 L6.95454545,5.31818182 C6.72831818,5.31818182 6.54545455,5.50145455 6.54545455,5.72727273 C6.54545455,5.95309091 6.72831818,6.13636364 6.95454545,6.13636364 L7.36363636,6.13636364 C7.58986364,6.13636364 7.77272727,5.95309091 7.77272727,5.72727273 L7.77272727,5.72727273 Z" id="Shape"></path>
                                    <path d="M9.81818182,6.13636364 C10.0444091,6.13636364 10.2272727,5.95309091 10.2272727,5.72727273 C10.2272727,5.50145455 10.0444091,5.31818182 9.81818182,5.31818182 L9,5.31818182 C8.77377273,5.31818182 8.59090909,5.50145455 8.59090909,5.72727273 C8.59090909,5.95309091 8.77377273,6.13636364 9,6.13636364 L9.81818182,6.13636364 L9.81818182,6.13636364 Z" id="Shape"></path>
                                    <path d="M11.1681818,5.43681818 C11.0900455,5.51454545 11.0454545,5.61681818 11.0454545,5.72727273 C11.0454545,5.83772727 11.0900455,5.94 11.1640909,6.01772727 C11.2414091,6.09136364 11.3481818,6.13636364 11.4545455,6.13636364 C11.5609091,6.13636364 11.6672727,6.09136364 11.745,6.01772727 C11.8186364,5.94 11.8636364,5.83363636 11.8636364,5.72727273 C11.8636364,5.62090909 11.8186364,5.51454545 11.745,5.44090909 C11.5936364,5.28545455 11.3154545,5.28545455 11.1681818,5.43681818 L11.1681818,5.43681818 Z" id="Shape"></path>
                                    <path d="M2.04545455,15.1363636 L6.54545455,15.1363636 L6.54545455,11.8636364 L2.04545455,11.8636364 L2.04545455,15.1363636 L2.04545455,15.1363636 Z M2.86363636,12.6818182 L5.72727273,12.6818182 L5.72727273,14.3181818 L2.86363636,14.3181818 L2.86363636,12.6818182 L2.86363636,12.6818182 Z" id="Shape"></path>
                                    <path d="M7.36363636,15.1363636 L11.8636364,15.1363636 L11.8636364,11.8636364 L7.36363636,11.8636364 L7.36363636,15.1363636 L7.36363636,15.1363636 Z M8.18181818,12.6818182 L11.0454545,12.6818182 L11.0454545,14.3181818 L8.18181818,14.3181818 L8.18181818,12.6818182 L8.18181818,12.6818182 Z" id="Shape"></path>
                                    <path d="M12.6818182,15.1363636 L17.1818182,15.1363636 L17.1818182,11.8636364 L12.6818182,11.8636364 L12.6818182,15.1363636 L12.6818182,15.1363636 Z M13.5,12.6818182 L16.3636364,12.6818182 L16.3636364,14.3181818 L13.5,14.3181818 L13.5,12.6818182 L13.5,12.6818182 Z" id="Shape"></path>
                                    <path d="M18,15.1363636 L22.5,15.1363636 L22.5,11.8636364 L18,11.8636364 L18,15.1363636 L18,15.1363636 Z M18.8181818,12.6818182 L21.6818182,12.6818182 L21.6818182,14.3181818 L18.8181818,14.3181818 L18.8181818,12.6818182 L18.8181818,12.6818182 Z" id="Shape"></path>
                                </g>
                            </g>
                        </g>
                    </g>
                </g>
            </g>
        </g>
    </g>
</svg>