<?xml version="1.0" encoding="UTF-8"?>
<svg width="29px" height="12px" viewBox="0 0 29 12" version="1.1" xmlns="http://www.w3.org/2000/svg" xmlns:xlink="http://www.w3.org/1999/xlink">
    <!-- Generator: Sketch 39.1 (31720) - http://www.bohemiancoding.com/sketch -->
    <title>password</title>
    <desc>Created with Sketch.</desc>
    <defs></defs>
    <g id="mobile" stroke="none" stroke-width="1" fill="none" fill-rule="evenodd">
        <g id="signUpMailForm" transform="translate(-340.000000, -556.000000)" fill="#888888">
            <g id="Group-2" transform="translate(33.000000, 472.000000)">
                <g id="inputTCNo" transform="translate(0.000000, 66.000000)">
                    <g id="password" transform="translate(307.000000, 18.000000)">
                        <g id="Layer_1">
                            <g id="Group">
                                <path d="M26.3999812,0.0184950601 L2.40001875,0.0184950601 C1.07634375,0.0184950601 0,1.0813223 0,2.388251 L0,9.49746328 C0,10.804392 1.07634375,11.8672192 2.40001875,11.8672192 L26.4000375,11.8672192 C27.7236562,11.8672192 28.8,10.804392 28.8,9.49746328 L28.8,2.388251 C28.8,1.0813223 27.7236562,0.0184950601 26.3999812,0.0184950601 L26.3999812,0.0184950601 Z M27.8000094,9.76850971 C27.8000094,10.4575749 27.2533697,11.0184951 26.5818474,11.0184951 L2.21820882,11.0184951 C1.54668656,11.0184951 1.00004687,10.4575749 1.00004687,9.76850971 L1.00004687,2.26848041 C1.00004687,1.57941522 1.54668656,1.01849506 2.21820882,1.01849506 L26.5818474,1.01849506 C27.2533697,1.01849506 27.8000094,1.57941522 27.8000094,2.26848041 L27.8000094,9.76850971 L27.8000094,9.76850971 Z" id="Shape"></path>
                                <path d="M7.478325,4.75800694 C7.3119375,4.47336075 6.9433875,4.37788625 6.65859375,4.54106489 L6.00001875,4.91652016 L6.00001875,4.16555407 C6.00001875,3.83808598 5.73165,3.5731012 5.4,3.5731012 C5.06835,3.5731012 4.79998125,3.83808598 4.79998125,4.16555407 L4.79998125,4.91652016 L4.14140625,4.54106489 C3.85486875,4.37788625 3.4875,4.47336075 3.321675,4.75800694 C3.15585,5.04148678 3.2542875,5.40366782 3.5413875,5.56740187 L4.19990625,5.94285714 L3.5413875,6.31831242 C3.2542875,6.48204646 3.15585,6.8442275 3.321675,7.12770734 C3.43299375,7.31804539 3.63459375,7.42390601 3.8419875,7.42390601 C3.94396875,7.42390601 4.047075,7.39846836 4.14140625,7.3446494 L4.79998125,6.96919413 L4.79998125,7.72016021 C4.79998125,8.0476283 5.06835,8.31261308 5.4,8.31261308 C5.73165,8.31261308 6.00001875,8.0476283 6.00001875,7.72016021 L6.00001875,6.96919413 L6.65859375,7.3446494 C6.752925,7.39846836 6.85603125,7.42390601 6.9580125,7.42390601 C7.1654625,7.42390601 7.36700625,7.31804539 7.478325,7.12770734 C7.64415,6.8442275 7.5457125,6.48204646 7.2586125,6.31831242 L6.60009375,5.94285714 L7.2586125,5.56740187 C7.5457125,5.40366782 7.64415,5.04148678 7.478325,4.75800694 L7.478325,4.75800694 Z" id="Shape"></path>
                                <path d="M13.4783438,4.75800694 C13.3113375,4.47336075 12.9439688,4.37788625 12.6586125,4.54106489 L12.0000375,4.91652016 L12.0000375,4.16555407 C12.0000375,3.83808598 11.7316688,3.5731012 11.4000188,3.5731012 C11.0683688,3.5731012 10.8,3.83808598 10.8,4.16555407 L10.8,4.91652016 L10.141425,4.54106489 C9.854325,4.37788625 9.48695625,4.47336075 9.32169375,4.75800694 C9.15586875,5.04148678 9.25430625,5.40366782 9.54140625,5.56740187 L10.199925,5.94285714 L9.54140625,6.31831242 C9.25430625,6.48204646 9.15586875,6.8442275 9.32169375,7.12770734 C9.4330125,7.31804539 9.6346125,7.42390601 9.84200625,7.42390601 C9.9439875,7.42390601 10.0470938,7.39846836 10.141425,7.3446494 L10.8,6.96919413 L10.8,7.72016021 C10.8,8.0476283 11.0683688,8.31261308 11.4000188,8.31261308 C11.7316688,8.31261308 12.0000375,8.0476283 12.0000375,7.72016021 L12.0000375,6.96919413 L12.6586125,7.3446494 C12.7529438,7.39846836 12.85605,7.42390601 12.9580313,7.42390601 C13.1654813,7.42390601 13.367025,7.31804539 13.4783438,7.12770734 C13.6441688,6.8442275 13.5457313,6.48204646 13.2586313,6.31831242 L12.6000563,5.94285714 L13.258575,5.56740187 C13.5457313,5.40366782 13.6441688,5.04148678 13.4783438,4.75800694 L13.4783438,4.75800694 Z" id="Shape"></path>
                                <path d="M19.4783062,4.75800694 C19.3119187,4.47336075 18.9433687,4.37788625 18.658575,4.54106489 L18,4.91652016 L18,4.16555407 C18,3.83808598 17.7316312,3.5731012 17.3999812,3.5731012 C17.0683312,3.5731012 16.7999625,3.83808598 16.7999625,4.16555407 L16.7999625,4.91652016 L16.1413875,4.54106489 C15.85485,4.37788625 15.4874812,4.47336075 15.3216562,4.75800694 C15.1558312,5.04148678 15.2542687,5.40366782 15.5413687,5.56740187 L16.1998875,5.94285714 L15.5413687,6.31831242 C15.2542687,6.48204646 15.1558312,6.8442275 15.3216562,7.12770734 C15.432975,7.31804539 15.634575,7.42390601 15.8419687,7.42390601 C15.94395,7.42390601 16.0470562,7.39846836 16.1413875,7.3446494 L16.7999625,6.96919413 L16.7999625,7.72016021 C16.7999625,8.0476283 17.0683312,8.31261308 17.3999812,8.31261308 C17.7316312,8.31261308 18,8.0476283 18,7.72016021 L18,6.96919413 L18.658575,7.3446494 C18.7529062,7.39846836 18.8560125,7.42390601 18.9579937,7.42390601 C19.1654437,7.42390601 19.3669875,7.31804539 19.4783062,7.12770734 C19.6441312,6.8442275 19.5456937,6.48204646 19.2585937,6.31831242 L18.600075,5.94285714 L19.2585937,5.56740187 C19.5456937,5.40366782 19.6441312,5.04148678 19.4783062,4.75800694 L19.4783062,4.75800694 Z" id="Shape"></path>
                                <path d="M25.478325,4.75800694 C25.3125,4.47336075 24.94395,4.37788625 24.6585938,4.54106489 L24.0000188,4.91652016 L24.0000188,4.16555407 C24.0000188,3.83808598 23.73165,3.5731012 23.4,3.5731012 C23.06835,3.5731012 22.7999813,3.83808598 22.7999813,4.16555407 L22.7999813,4.91652016 L22.1414063,4.54106489 C21.8536875,4.37788625 21.4880625,4.47336075 21.321675,4.75800694 C21.15585,5.04148678 21.2542875,5.40366782 21.5413875,5.56740187 L22.1999063,5.94285714 L21.5413875,6.31831242 C21.2542875,6.48204646 21.15585,6.8442275 21.321675,7.12770734 C21.4329938,7.31804539 21.6345938,7.42390601 21.8419875,7.42390601 C21.9439688,7.42390601 22.047075,7.39846836 22.1414063,7.3446494 L22.7999813,6.96919413 L22.7999813,7.72016021 C22.7999813,8.0476283 23.06835,8.31261308 23.4,8.31261308 C23.73165,8.31261308 24.0000188,8.0476283 24.0000188,7.72016021 L24.0000188,6.96919413 L24.6585938,7.3446494 C24.752925,7.39846836 24.8560313,7.42390601 24.9580125,7.42390601 C25.1654625,7.42390601 25.3670063,7.31804539 25.478325,7.12770734 C25.64415,6.8442275 25.5457125,6.48204646 25.2586125,6.31831242 L24.6000938,5.94285714 L25.2586125,5.56740187 C25.5457125,5.40366782 25.64415,5.04148678 25.478325,4.75800694 L25.478325,4.75800694 Z" id="Shape"></path>
                            </g>
                        </g>
                    </g>
                </g>
            </g>
        </g>
    </g>
</svg>