<?xml version="1.0" encoding="iso-8859-1"?>
<!-- Generator: Adobe Illustrator 18.0.0, SVG Export Plug-In . SVG Version: 6.00 Build 0)  -->
<!DOCTYPE svg PUBLIC "-//W3C//DTD SVG 1.1//EN" "http://www.w3.org/Graphics/SVG/1.1/DTD/svg11.dtd">
<svg version="1.1" id="Capa_1" xmlns="http://www.w3.org/2000/svg" xmlns:xlink="http://www.w3.org/1999/xlink" x="0px" y="0px"
	 viewBox="0 0 474.155 474.155" style="enable-background:new 0 0 474.155 474.155;" xml:space="preserve">
<g>
	<path d="M102.028,212.151l31.546,21.35V54.843c0-12.846,10.452-23.297,23.297-23.297h160.413c12.846,0,23.297,10.452,23.297,23.297
		v178.658l31.546-21.35l43.114-29.174l13.786-9.328l-56.9-34.889V54.843C372.127,24.552,347.575,0,317.284,0H156.871
		c-30.291,0-54.843,24.552-54.843,54.843v83.917l-56.9,34.889l13.778,9.328L102.028,212.151z"/>
	<path d="M237.078,146.479c-4.366-15.303-18.423-25.601-35.127-25.601c-20.186,0-36.545,16.366-36.545,36.552
		c0,51.171,66.149,88.978,71.671,88.978c5.885,0,71.673-37.33,71.673-88.978c0-20.186-16.36-36.552-36.544-36.552
		C255.501,120.877,241.445,131.175,237.078,146.479z"/>
	<path d="M237.085,341.624L41.23,209.101v70.679v167.033c0,15.104,12.238,27.342,27.341,27.342h337.012
		c15.103,0,27.341-12.238,27.341-27.342V279.78v-70.679L237.085,341.624z"/>
</g>
<g>
</g>
<g>
</g>
<g>
</g>
<g>
</g>
<g>
</g>
<g>
</g>
<g>
</g>
<g>
</g>
<g>
</g>
<g>
</g>
<g>
</g>
<g>
</g>
<g>
</g>
<g>
</g>
<g>
</g>
</svg>
