<?xml version="1.0" encoding="UTF-8"?>
<svg width="33px" height="24px" viewBox="0 0 33 24" version="1.1" xmlns="http://www.w3.org/2000/svg" xmlns:xlink="http://www.w3.org/1999/xlink">
    <!-- Generator: Sketch 39.1 (31720) - http://www.bohemiancoding.com/sketch -->
    <title>kaskolu-arac</title>
    <desc>Created with Sketch.</desc>
    <defs></defs>
    <g id="mobile" stroke="none" stroke-width="1" fill="none" fill-rule="evenodd">
        <g id="iPhone-6-Plus" transform="translate(-190.000000, -324.000000)" fill="#FF7377">
            <g id="kaskolu-arac" transform="translate(190.000000, 324.000000)">
                <path d="M15.9679839,21.8137052 C24.1483025,27.7507802 36.7186865,21.1721459 31.9469229,7.20957936 C27.1751592,-6.75298721 20.2074354,3.86468637 13.5293795,3.86468637 C6.85132364,3.86468637 -2.80642359,0.00115356954 0.771400815,7.20957956 C4.34922522,14.4180055 7.78766537,15.8766303 15.9679839,21.8137052 Z" id="Oval-2" opacity="0.07"></path>
                <g id="auto-insurance" transform="translate(4.800000, 2.400000)">
                    <g id="Capa_1">
                        <path d="M4.7757222,13.4779813 C4.7757222,13.7753121 4.53486769,14.0162991 4.23770022,14.0162991 L1.49791297,14.0162991 C1.20074549,14.0162991 0.959890989,13.7753121 0.959890989,13.4779813 C0.959890989,13.1806505 1.20074549,12.9396636 1.49791297,12.9396636 L4.23776,12.9396636 C4.53486769,12.9396636 4.7757222,13.1806505 4.7757222,13.4779813 L4.7757222,13.4779813 Z M4.91668396,10.9411888 C4.88553846,10.9467514 4.85397451,10.9495028 4.82247033,10.9495028 C4.79096615,10.9495028 4.7594022,10.9467514 4.7282567,10.9411888 C3.42217846,10.7086953 2.22597626,10.017914 1.35988044,8.99600748 C0.482964396,7.96130093 0,6.64798505 0,5.29800374 L0,1.98663178 C0,1.5437757 0.282043077,0.923573832 1.6256633,0.48406729 C2.48739516,0.202228037 3.62268132,0.046953271 4.82241055,0.046953271 C6.02202022,0.046953271 7.15730637,0.202228037 8.01903824,0.48406729 C9.36271824,0.923573832 9.64476132,1.5437757 9.64476132,1.98663178 C9.64476132,1.9899215 9.64476132,1.9931514 9.64470154,1.99644112 L9.64470154,5.29794393 C9.64470154,6.64792523 9.16179692,7.96124112 8.28488088,8.99594766 C7.41884484,10.017914 6.22264264,10.7087551 4.91668396,10.9411888 L4.91668396,10.9411888 Z M8.56865758,5.29800374 L8.56865758,1.99751776 C8.46212923,1.74319252 7.21660835,1.1236486 4.82241055,1.1236486 C2.42755516,1.1236486 1.18203429,1.7435514 1.07604396,1.9976972 L1.07604396,5.29800374 C1.07604396,7.52562243 2.64575297,9.43048972 4.82241055,9.86341682 C6.99900835,9.43048972 8.56865758,7.52562243 8.56865758,5.29800374 L8.56865758,5.29800374 Z M4.23770022,14.8730617 L3.01250462,14.8730617 C2.71533714,14.8730617 2.47448264,15.1140486 2.47448264,15.4113794 C2.47448264,15.7087103 2.71533714,15.9496972 3.01250462,15.9496972 L4.23770022,15.9496972 C4.53486769,15.9496972 4.7757222,15.7087103 4.7757222,15.4113794 C4.7757222,15.1140486 4.53486769,14.8730617 4.23770022,14.8730617 L4.23770022,14.8730617 Z M15.9612589,16.6574056 C15.9612589,16.9547364 15.7204044,17.1957234 15.4232369,17.1957234 L12.3168774,17.1957234 C12.069447,18.3383925 11.0511508,19.1968897 9.8361178,19.1968897 C8.59011868,19.1968897 7.55095912,18.2938916 7.3379622,17.1076187 C6.90682725,16.9709458 6.55119473,16.6830654 6.36007736,16.2990654 C6.26442901,16.1062879 6.21612659,15.902086 6.21612659,15.6914841 L6.21612659,12.1019813 C6.21612659,11.8046505 6.4569811,11.5636636 6.75414857,11.5636636 C7.05131604,11.5636636 7.29217055,11.8046505 7.29217055,12.1019813 L7.29217055,15.6915439 C7.29217055,15.7346093 7.30275165,15.7777346 7.32361495,15.819843 C7.34184791,15.8564486 7.36904791,15.8936523 7.40449758,15.9288224 C7.71828396,14.8826318 8.68965275,14.1181607 9.8361178,14.1181607 C11.0510312,14.1181607 12.0693275,14.9767178 12.3168176,16.1191477 L15.4231771,16.1191477 C15.7204044,16.1190879 15.9612589,16.3600748 15.9612589,16.6574056 L15.9612589,16.6574056 Z M11.2982224,16.6574654 C11.2982224,15.8509458 10.6423736,15.1947364 9.83617758,15.1947364 C9.03404659,15.1947364 8.38064879,15.8443664 8.37419253,16.6455028 C8.37431209,16.6521421 8.37425231,16.6589009 8.37419253,16.6656 C8.37855648,17.468471 9.03273143,18.1202542 9.83617758,18.1202542 C10.6423138,18.1202542 11.2982224,17.4640449 11.2982224,16.6574654 L11.2982224,16.6574654 Z M23.2960527,14.544628 L23.2944985,14.8923215 C23.2934224,15.1178766 23.2922268,15.3750131 23.2922268,15.6915439 C23.2922268,16.3353121 22.8294681,16.8927103 22.1770866,17.1046879 C21.9653451,18.2923364 20.9254681,19.1968897 19.6784527,19.1968897 C18.278938,19.1968897 17.140364,18.0576897 17.140364,16.6574654 C17.140364,15.2572411 18.278938,14.1181009 19.6784527,14.1181009 C20.8231244,14.1181009 21.7932976,14.8802991 22.1085785,15.9239776 C22.1760105,15.8555514 22.2161829,15.7749234 22.2161829,15.6914841 C22.2161829,15.3729794 22.2174382,15.1141682 22.2184545,14.8871776 L22.2200088,14.5397234 C22.2219815,14.1103252 22.2246119,13.522243 22.2183947,13.2477607 C22.213971,13.0511551 22.2086505,12.8898393 22.1948413,12.7502953 L13.917971,12.7502953 C13.7248809,12.7502953 13.2727033,12.7502953 11.8889108,11.3820112 C11.4673407,10.965114 10.6292818,10.078086 10.4750488,9.70443364 C10.3616457,9.42965234 10.4923253,9.11491589 10.7669556,9.00139065 C11.0374013,8.88965981 11.3465846,9.01472897 11.4642919,9.28095701 C11.5374031,9.4121271 11.9749943,9.94918879 12.6091429,10.5803963 C13.4078664,11.375372 13.8322462,11.6328075 13.9479209,11.6736598 L21.5902242,11.6736598 C21.4172202,11.5076785 21.195316,11.3109533 20.9101644,11.0581234 C20.7620888,10.9268935 20.5994268,10.7826841 20.4208035,10.6222654 C20.2904826,10.5053308 20.16064,10.3811589 20.0350418,10.261114 C19.8521741,10.0862804 19.6630892,9.90558505 19.466233,9.74056075 C19.2925116,9.59485607 19.1279965,9.45632897 18.9714919,9.32450093 C16.9747727,7.64231776 16.4380659,7.19019065 14.7541767,7.19019065 L11.0399121,7.19019065 C10.7427446,7.19019065 10.5018901,6.94920374 10.5018901,6.6518729 C10.5018901,6.35454206 10.7427446,6.11355514 11.0399121,6.11355514 L14.7541767,6.11355514 C16.8307622,6.11355514 17.6603323,6.81247103 19.6645837,8.50087477 C19.820371,8.63210467 19.9842286,8.77015327 20.1572325,8.9152 C20.3810497,9.10283364 20.583047,9.29591028 20.7784088,9.48264673 C20.9035288,9.60221308 21.0216545,9.7152 21.1394813,9.82088972 C21.3163112,9.97963364 21.4772396,10.1223477 21.6238207,10.2522617 C22.9133398,11.3954093 23.2599455,11.7026692 23.2942593,13.2234168 C23.3007156,13.5125533 23.2981451,14.084785 23.2960527,14.544628 L23.2960527,14.544628 Z M21.1404378,16.6519028 C21.137389,15.8479551 20.4827358,15.1947364 19.678393,15.1947364 C18.8722567,15.1947364 18.2163481,15.8509458 18.2163481,16.6574654 C18.2163481,17.4640449 18.8721969,18.1202542 19.678393,18.1202542 C20.4841705,18.1202542 21.1397802,17.464643 21.1404378,16.6585421 L21.1404378,16.6519028 L21.1404378,16.6519028 Z M19.6791103,16.1191477 L19.6777354,16.1191477 C19.3805679,16.1191477 19.1404308,16.3601346 19.1404308,16.6574654 C19.1404308,16.9547963 19.3820026,17.1957832 19.6791701,17.1957832 C19.9763376,17.1957832 20.2171921,16.9547963 20.2171921,16.6574654 C20.2171921,16.3601346 19.9762778,16.1191477 19.6791103,16.1191477 L19.6791103,16.1191477 Z M8.92243692,12.2119178 C8.92243692,12.5092486 9.16329143,12.7502355 9.4604589,12.7502355 L10.0657336,12.7502355 C10.3629011,12.7502355 10.6037556,12.5092486 10.6037556,12.2119178 C10.6037556,11.9145869 10.3629011,11.6736 10.0657336,11.6736 L9.4604589,11.6736 C9.16335121,11.6736 8.92243692,11.9145869 8.92243692,12.2119178 L8.92243692,12.2119178 Z M9.83683516,16.1191477 L9.8352211,16.1191477 C9.53805363,16.1191477 9.29797626,16.3601346 9.29797626,16.6574654 C9.29797626,16.9547963 9.53966769,17.1957832 9.83683516,17.1957832 C10.1340026,17.1957832 10.3748571,16.9547963 10.3748571,16.6574654 C10.3748571,16.3601346 10.1340026,16.1191477 9.83683516,16.1191477 L9.83683516,16.1191477 Z" id="Shape"></path>
                    </g>
                </g>
            </g>
        </g>
    </g>
</svg>