<?xml version="1.0" encoding="UTF-8"?>
<svg width="43px" height="40px" viewBox="0 0 43 40" version="1.1" xmlns="http://www.w3.org/2000/svg" xmlns:xlink="http://www.w3.org/1999/xlink">
    <!-- Generator: Sketch 39.1 (31720) - http://www.bohemiancoding.com/sketch -->
    <title>kilit-ac</title>
    <desc>Created with Sketch.</desc>
    <defs>
        <linearGradient x1="94.3999566%" y1="11.3378906%" x2="8.67913367%" y2="91.2640116%" id="linearGradient-1">
            <stop stop-color="#FF585B" stop-opacity="0.5" offset="0%"></stop>
            <stop stop-color="#FF585B" stop-opacity="0" offset="100%"></stop>
        </linearGradient>
        <rect id="path-2" x="0" y="0" width="34.4497608" height="21.0526316" rx="3"></rect>
        <mask id="mask-3" maskContentUnits="userSpaceOnUse" maskUnits="objectBoundingBox" x="0" y="0" width="34.4497608" height="21.0526316" fill="white">
            <use xlink:href="#path-2"></use>
        </mask>
    </defs>
    <g id="mobile" stroke="none" stroke-width="1" fill="none" fill-rule="evenodd">
        <g id="iPhone-6-Plus" transform="translate(-86.000000, -2423.000000)">
            <g id="Group-22" transform="translate(13.000000, 2200.000000)">
                <g id="Group-14-Copy-2" transform="translate(2.000000, 203.000000)">
                    <g id="kilit-ac" transform="translate(71.000000, 20.000000)">
                        <path d="M22.1302765,38.1411432 C39.8698657,47.190689 48.4322046,15.6089829 39.1934097,17.6895986 C29.9546148,19.7702143 33.54262,3.08972427 32.0748821,3.00146091 C31.2688484,2.95298956 17.2039373,0.383244641 16.3810804,0.37877357 C4.07404504,0.311902133 13.1303683,14.7930441 2.20955853,14.7905834 C-4.42952029,14.7890875 6.33677509,30.0843605 22.1302765,38.1411432 Z" id="Oval-3" fill-opacity="0.07" fill="#FF7377"></path>
                        <g id="Group-15" transform="translate(6.315789, 10.000000)">
                            <use id="Rectangle-11" stroke="#FF585B" mask="url(#mask-3)" stroke-width="2" fill-opacity="0.249999985" fill="url(#linearGradient-1)" xlink:href="#path-2"></use>
                            <g id="logo" transform="translate(9.473684, 4.385965)" fill="#FF585B">
                                <g id="_2356168480480">
                                    <g id="Group">
                                        <g transform="translate(0.518172, 0.000000)" id="Shape">
                                            <path d="M1.83914649,5.82468626 C1.83914649,5.79434935 1.83549739,5.74884399 1.83549739,5.69196229 C1.82455009,5.17623486 1.9997069,4.77427084 2.28068762,4.48607021 C2.55801923,4.20545382 2.93022745,4.04618505 3.31703207,4.00826392 C3.34257577,4.00826392 3.38636497,4.0044718 3.43745238,4.0044718 C3.7987133,3.99688758 4.18916702,4.0878983 4.49204233,4.31163299 C4.76937395,4.51640712 4.97372356,4.81598408 5.03210916,5.22932445 C5.06130196,5.42272224 5.09049476,5.59715945 5.12698576,5.74125977 C5.16347677,5.86639951 5.20726597,5.9763708 5.26565157,6.06738152 C5.42256288,6.29870044 5.63421069,6.47692978 5.8787004,6.59448529 C6.14143562,6.72341715 6.44431093,6.78409096 6.75083535,6.78029885 C7.00992146,6.77650674 7.26900758,6.73100138 7.54269009,6.57931684 C7.7835307,6.44659287 8.04261682,6.2304424 8.33454483,5.89673642 C7.97693301,5.35067208 7.28360398,4.06893773 7.7287942,2.83270875 C8.13019522,1.71782739 9.02422477,1.22485264 9.54604609,1.02007852 C9.53874789,0.481598408 9.98758722,0 9.99123632,0 L10.5422504,0.553648564 C10.5422504,0.553648564 10.235726,0.883562434 10.3233044,1.0428312 L12.1150126,3.15503839 L12.3449059,3.42807056 L12.1040653,3.6935185 L11.4618237,4.40643583 L11.2720705,4.61500207 L11.0239317,4.49744655 L9.6080808,3.82624247 L9.5898353,3.81865825 C9.5898353,3.81865825 9.04976847,3.54183396 9.23952168,2.60897405 L9.98758722,2.77203493 C9.93285071,3.04885922 9.93649981,3.09815669 9.94014891,3.10953303 L11.0896155,3.65180525 L11.3085615,3.41290211 L9.88906151,1.73678796 C9.52415149,1.8619277 8.76878775,2.21838637 8.44766694,3.10953303 C8.01707311,4.30025665 9.11545227,5.65404116 9.11910137,5.65783327 L9.32345098,5.90811276 L9.12275047,6.16597647 C8.67756025,6.73100138 8.27980833,7.0760837 7.90030191,7.28464994 C7.50254999,7.50080041 7.13399087,7.56905845 6.76543175,7.57664268 C6.34213613,7.5842269 5.92248961,7.49700829 5.55393049,7.31498685 C5.18902047,7.13675752 4.87154875,6.87510169 4.63800634,6.52622725 C4.52488423,6.35558214 4.44825313,6.16597647 4.38986753,5.95361812 C4.33878012,5.76022033 4.30228912,5.55923832 4.27309632,5.35067208 C4.24755262,5.17244275 4.16362331,5.047303 4.05050121,4.96387651 C3.8899408,4.84252888 3.66734569,4.7932314 3.45569788,4.80081563 C3.44839968,4.80081563 3.42285598,4.80081563 3.38271587,4.80460774 C3.16376986,4.82356831 2.96306935,4.91078692 2.81710535,5.05488723 C2.68208864,5.19519543 2.59451023,5.40376167 2.60180843,5.67300172 C2.60180843,5.68437806 2.60180843,5.71471497 2.60545753,5.75642822 L1.83914649,5.82468626 L1.83914649,5.82468626 Z"></path>
                                            <path d="M0.58020693,5.78676513 C0.985257051,6.54518782 1.51802568,7.22018401 2.14932001,7.7814168 C2.96671845,6.04842096 4.68179554,4.85390522 6.66690604,4.85390522 C8.65201655,4.85390522 10.3707427,6.04842096 11.1881412,7.7814168 C11.8194355,7.22018401 12.3522041,6.54518782 12.7536052,5.78676513 L13.3374612,6.00291559 C12.8594291,6.92819128 12.2098892,7.73970355 11.4326309,8.39573918 C11.4143854,8.41090764 11.3961399,8.42607609 11.3815435,8.44124454 C11.3523507,8.46399722 11.3231579,8.4867499 11.2939651,8.50950259 C11.2720705,8.52846315 11.253825,8.54363161 11.2319304,8.55880006 C11.2063867,8.58155274 11.180843,8.60051331 11.1516502,8.62326599 C11.1297556,8.63843444 11.1042119,8.65739501 11.0823173,8.67635558 C11.0567736,8.69531614 11.034879,8.7104846 11.0093353,8.72944517 C10.9837916,8.74840573 10.9545988,8.7673663 10.925406,8.78632687 C10.9071605,8.80149532 10.8852659,8.81666377 10.8633713,8.83183223 C10.8341785,8.85458491 10.8013366,8.87354548 10.7721438,8.89629816 C9.5898353,9.69264198 8.18128262,10.1514877 6.66690604,10.1514877 C5.15617857,10.1514877 3.74762589,9.69264198 2.56531743,8.89629816 C2.53247553,8.87354548 2.50328273,8.85458491 2.47044083,8.83183223 C2.45219533,8.81666377 2.43030073,8.80149532 2.40840612,8.78632687 C2.38286242,8.7673663 2.35366962,8.74840573 2.32447682,8.72944517 C2.30258222,8.7104846 2.28068762,8.69531614 2.25514392,8.67635558 C2.23324932,8.65739501 2.20770561,8.63843444 2.18581101,8.62326599 C2.15661821,8.60051331 2.13107451,8.58155274 2.10188171,8.55880006 C2.08363621,8.54363161 2.06174161,8.52846315 2.04349611,8.50950259 C2.0143033,8.4867499 1.9851105,8.46399722 1.9559177,8.44124454 C1.9376722,8.42607609 1.9230758,8.41090764 1.9048303,8.39573918 C1.12757196,7.73970355 0.478032125,6.92819128 0,6.00291559 L0.58020693,5.78676513 L0.58020693,5.78676513 Z M10.5568468,8.28197578 C9.89635971,6.73479349 8.40387773,5.65783327 6.66690604,5.65783327 C4.93358345,5.65783327 3.44110148,6.73479349 2.77696524,8.28197578 C3.8899408,9.06315115 5.22551147,9.51820476 6.66690604,9.51820476 C8.10830062,9.51820476 9.44752039,9.06315115 10.5568468,8.28197578 L10.5568468,8.28197578 Z"></path>
                                        </g>
                                        <path d="M0.926871448,5.45305914 C2.10188171,7.80037737 4.46284953,9.40823347 7.18507827,9.40823347 C9.91095611,9.40823347 12.2719239,7.80037737 13.4432851,5.45305914 L14.3738056,6.01808405 C13.0126913,8.69910826 10.3050589,10.5231148 7.18507827,10.5231148 C4.06874671,10.5231148 1.36111437,8.69910826 0,6.01808405 L0.926871448,5.45305914 L0.926871448,5.45305914 Z" id="Shape"></path>
                                        <path d="M13.8994226,5.72988343 L13.9724046,5.77538879 L13.9614573,5.79434935 L13.9395627,5.8360626 L13.9176681,5.87777585 L13.9176681,5.87777585 L13.8446861,5.8360626 L13.8446861,5.8360626 L13.8665807,5.79434935 L13.8884753,5.75263611 L13.8994226,5.72988343 L13.8994226,5.72988343 Z M0.543715928,6.04842096 L0.620347032,6.00291559 L0.642241633,6.04462884 L0.664136234,6.08254998 L0.686030835,6.12426322 L0.711574537,6.16597647 L0.733469138,6.20768972 L0.759012839,6.24561085 L0.78455654,6.2873241 L0.806451142,6.32524524 L0.831994843,6.36695849 L0.839293043,6.37833483 L0.76996014,6.4276323 L0.759012839,6.41246385 L0.737118238,6.37454271 L0.711574537,6.33282946 L0.686030835,6.29111622 L0.660487134,6.25319508 L0.638592533,6.21148183 L0.613048832,6.16976859 L0.591154231,6.12805534 L0.565610529,6.08634209 L0.543715928,6.04842096 L0.543715928,6.04842096 Z M1.01080075,6.79167519 L1.08013366,6.7385856 L1.09108096,6.75375406 L1.12027376,6.79167519 L1.14581746,6.82959633 L1.17501026,6.86751746 L1.20055396,6.9054386 L1.22974676,6.94335973 L1.25893956,6.98128086 L1.28448327,7.01540989 L1.31367607,7.05333102 L1.33921977,7.08746004 L1.27353597,7.14434174 L1.24799226,7.11021272 L1.21879946,7.07229159 L1.18960666,7.03437045 L1.16406296,6.99644932 L1.13487016,6.95852818 L1.10567736,6.92060705 L1.08013366,6.88268591 L1.05094085,6.84476478 L1.02174805,6.80684365 L1.01080075,6.79167519 L1.01080075,6.79167519 Z M1.55816578,7.47804773 L1.62020048,7.41737391 L1.64209508,7.44391871 L1.67493699,7.47804773 L1.70412979,7.51217675 L1.73697169,7.54630577 L1.76981359,7.58043479 L1.79900639,7.61456381 L1.83184829,7.64869283 L1.8646902,7.68282185 L1.8975321,7.71695087 L1.9157776,7.73211933 L1.8537429,7.79658526 L1.83914649,7.77762469 L1.80630459,7.74349567 L1.77346269,7.71315876 L1.74062079,7.67902974 L1.70777889,7.64490072 L1.67493699,7.6107717 L1.64209508,7.57664268 L1.61290228,7.53872154 L1.58006038,7.50459252 L1.55816578,7.47804773 L1.55816578,7.47804773 Z M2.17121461,8.09616222 L2.22595111,8.03169629 L2.22960022,8.0354884 L2.26609122,8.06582531 L2.29893312,8.09616222 L2.33542412,8.12649913 L2.36826602,8.15683603 L2.40475702,8.18717294 L2.44124803,8.21750985 L2.47773903,8.24784676 L2.51058093,8.27439155 L2.54707193,8.30472846 L2.55437013,8.30852057 L2.50328273,8.38057073 L2.49598453,8.3729865 L2.45949353,8.34644171 L2.42300253,8.3161048 L2.38651152,8.28576789 L2.35002052,8.25543098 L2.31717862,8.22509408 L2.28068762,8.19475717 L2.24419662,8.16442026 L2.21135471,8.13408335 L2.17486371,8.10374645 L2.17121461,8.09616222 L2.17121461,8.09616222 Z M2.84629815,8.64222656 L2.89373645,8.5701764 L2.91563105,8.58155274 L2.95212205,8.61188965 L2.99226215,8.63464233 L3.02875316,8.66118712 L3.06524416,8.68773192 L3.10538426,8.71427671 L3.14552436,8.74082151 L3.18201536,8.76357419 L3.22215547,8.79011898 L3.25134827,8.80907955 L3.20755907,8.88492182 L3.17836626,8.86596125 L3.13822616,8.83941646 L3.09808606,8.81287166 L3.05794596,8.79011898 L3.02145496,8.76357419 L2.98131485,8.73702939 L2.94482385,8.7104846 L2.90468375,8.6839398 L2.86819275,8.65739501 L2.84629815,8.64222656 L2.84629815,8.64222656 Z M3.57611818,9.1048644 L3.61625829,9.02523001 L3.61625829,9.02523001 L3.65639839,9.0479827 L3.70018759,9.07073538 L3.74032769,9.09348806 L3.7804678,9.11624074 L3.8206079,9.1352013 L3.860748,9.15795399 L3.9045372,9.17691455 L3.9446773,9.19966723 L3.98846651,9.2186278 L3.99576471,9.22241991 L3.9592737,9.3020543 L3.9519755,9.29826218 L3.9081863,9.27930162 L3.8680462,9.25654894 L3.824257,9.23758837 L3.7841169,9.21483569 L3.74032769,9.19208301 L3.70018759,9.17312244 L3.66004749,9.15036976 L3.61990739,9.12761708 L3.57611818,9.1048644 L3.57611818,9.1048644 L3.57611818,9.1048644 Z M4.35337652,9.48028363 L4.38256933,9.39685713 L4.41176213,9.40823347 L4.45190223,9.42719404 L4.49569143,9.44236249 L4.53948063,9.46132306 L4.58326984,9.47649152 L4.62705904,9.49165997 L4.67084824,9.51062054 L4.71463744,9.52578899 L4.75842665,9.54095744 L4.78032125,9.54854167 L4.75477755,9.63196817 L4.72923384,9.62438394 L4.68544464,9.60921549 L4.64165544,9.59404703 L4.59786624,9.57508647 L4.55407704,9.55991801 L4.51028783,9.54095744 L4.46649863,9.52578899 L4.42270943,9.50682842 L4.37892023,9.49165997 L4.35337652,9.48028363 L4.35337652,9.48028363 Z M5.16347677,9.76090002 L5.18537137,9.67747353 L5.20361687,9.68126564 L5.24740607,9.69264198 L5.29484437,9.70781044 L5.33863358,9.71918678 L5.38607188,9.73056312 L5.42986108,9.74193946 L5.47729938,9.7533158 L5.52108858,9.76469214 L5.56852689,9.77227636 L5.59771969,9.77986059 L5.57947419,9.8670792 L5.55028139,9.85949497 L5.50284308,9.84811863 L5.45905388,9.83674229 L5.41161558,9.82536595 L5.36417728,9.81398961 L5.32038807,9.80261327 L5.27294977,9.79123693 L5.22551147,9.77986059 L5.18172227,9.76848425 L5.16347677,9.76090002 L5.16347677,9.76090002 Z M5.99912071,9.94671358 L6.01371711,9.85949497 L6.03196261,9.86328709 L6.07940091,9.87087131 L6.12683922,9.87845554 L6.17427752,9.88603977 L6.22171582,9.88983188 L6.26915412,9.89741611 L6.31659243,9.90120822 L6.36403073,9.90879245 L6.41146903,9.91258456 L6.43336363,9.91637668 L6.42606543,10.0035953 L6.40417083,9.99980317 L6.35673253,9.99601106 L6.30564513,9.99221894 L6.25820682,9.98463472 L6.21076852,9.97705049 L6.16333022,9.97325838 L6.11589192,9.96567415 L6.06845361,9.95808992 L6.02101531,9.9505057 L5.99912071,9.94671358 L5.99912071,9.94671358 Z M6.85301015,10.0387136 L6.85665925,9.94671358 L6.89315026,9.94671358 L6.94058856,9.95071358 L6.99167596,9.95071358 L7.03911426,9.95071358 L7.09020167,9.95471358 L7.13763997,9.95471358 L7.18507827,9.95471358 L7.23616567,9.95471358 L7.27995488,9.95471358 L7.27995488,10.0467136 L7.23616567,10.0467136 L7.18507827,10.0467136 L7.13763997,10.0467136 L7.08655257,10.0467136 L7.03911426,10.0467136 L6.98802686,10.0467136 L6.94058856,10.0427136 L6.88950116,10.0427136 L6.85301015,10.0387136 L6.85301015,10.0387136 Z M7.7068996,10.0225559 L7.7032505,9.93533724 L7.721496,9.93533724 L7.7689343,9.93154513 L7.8163726,9.92775302 L7.86381091,9.9239609 L7.91124921,9.91637668 L7.96233661,9.91258456 L8.00977491,9.90879245 L8.05721322,9.90120822 L8.10465152,9.89741611 L8.12289702,9.893624 L8.13384432,9.9808426 L8.11194972,9.98463472 L8.06451142,9.99221894 L8.01707311,9.99601106 L7.96963481,9.99980317 L7.92219651,10.0073874 L7.87110911,10.0111795 L7.8236708,10.0149716 L7.7762325,10.0187637 L7.7251451,10.0225559 L7.7068996,10.0225559 L7.7068996,10.0225559 Z M8.55713994,9.91637668 L8.54254354,9.82915807 L8.57173634,9.82157384 L8.61917464,9.81398961 L8.66661295,9.80261327 L8.71405125,9.79502905 L8.75784045,9.78365271 L8.80527875,9.77227636 L8.84906796,9.76469214 L8.89650626,9.7533158 L8.94394456,9.74193946 L8.95489186,9.73814734 L8.97678646,9.82536595 L8.96219006,9.82536595 L8.91475176,9.83674229 L8.87096256,9.84811863 L8.82352426,9.85949497 L8.77608595,9.87087131 L8.72864765,9.88224765 L8.68120935,9.88983188 L8.63742015,9.90120822 L8.58998184,9.90879245 L8.55713994,9.91637668 L8.55713994,9.91637668 Z M9.38913478,9.70781044 L9.36359108,9.62438394 L9.39278388,9.6130076 L9.43657309,9.60163126 L9.48401139,9.58646281 L9.52780059,9.57129435 L9.57158979,9.5561259 L9.615379,9.54095744 L9.6591682,9.52578899 L9.7029574,9.51062054 L9.7467466,9.49165997 L9.7649921,9.48407574 L9.79418491,9.56750224 L9.7759394,9.57508647 L9.7321502,9.59404703 L9.688361,9.60921549 L9.6409227,9.62438394 L9.5971335,9.63955239 L9.55334429,9.65472085 L9.50955509,9.6698893 L9.46211679,9.68505776 L9.41832759,9.70022621 L9.38913478,9.70781044 L9.38913478,9.70781044 Z M10.1919368,9.40444136 L10.1590949,9.32480698 L10.1773404,9.31722275 L10.2174805,9.29826218 L10.2612697,9.27930162 L10.3014098,9.26034105 L10.345199,9.23758837 L10.3853391,9.2186278 L10.4291283,9.19966723 L10.4692684,9.17691455 L10.5094085,9.15795399 L10.5422504,9.13899342 L10.5823905,9.2186278 L10.5495486,9.23758837 L10.5057594,9.25654894 L10.4656193,9.27930162 L10.4218301,9.29826218 L10.3780409,9.32101486 L10.3379008,9.33997543 L10.2941116,9.358936 L10.2539715,9.37789657 L10.2101823,9.39685713 L10.1919368,9.40444136 L10.1919368,9.40444136 Z M10.9582479,9.01006156 L10.9181078,8.93421929 L10.9545988,8.91146661 L10.9947389,8.88871393 L11.034879,8.86216914 L11.0750191,8.83941646 L11.1115101,8.81287166 L11.1516502,8.79011898 L11.1917903,8.76357419 L11.2282813,8.74082151 L11.2684214,8.71427671 L11.2793687,8.70669248 L11.326807,8.78253475 L11.3122106,8.79011898 L11.2757196,8.81287166 L11.2355795,8.83941646 L11.1954394,8.86596125 L11.1552993,8.88871393 L11.1188083,8.91525872 L11.0786682,8.93801141 L11.0385281,8.9645562 L10.998388,8.98730888 L10.9582479,9.01006156 L10.9582479,9.01006156 Z M11.6771206,8.52846315 L11.6296823,8.456413 L11.6442787,8.44503666 L11.6807697,8.41849186 L11.7172607,8.39194707 L11.7537517,8.36161016 L11.7902427,8.33506537 L11.8267337,8.30472846 L11.8595756,8.27439155 L11.8960666,8.24784676 L11.9325576,8.21750985 L11.9653995,8.19096506 L12.0164869,8.2592231 L11.9872941,8.28576789 L11.9508031,8.3161048 L11.9143121,8.34644171 L11.8778211,8.3729865 L11.8413301,8.40332341 L11.8048391,8.43366032 L11.7683481,8.46020511 L11.7318571,8.49054202 L11.6953661,8.51708681 L11.6771206,8.52846315 L11.6771206,8.52846315 Z M12.3412568,7.96723036 L12.2828712,7.90276443 L12.312064,7.87621964 L12.3449059,7.84588273 L12.3777478,7.81175371 L12.4105897,7.7814168 L12.4434316,7.74728778 L12.4762735,7.71695087 L12.5091154,7.68282185 L12.5419573,7.64869283 L12.5711501,7.61456381 L12.5893956,7.59939536 L12.6514304,7.66006917 L12.6331849,7.67902974 L12.600343,7.71315876 L12.567501,7.74349567 L12.5346591,7.77762469 L12.5018172,7.81175371 L12.4689753,7.84588273 L12.4361334,7.87621964 L12.4032915,7.91034866 L12.3704496,7.94447768 L12.3412568,7.96723036 L12.3412568,7.96723036 Z M12.9397093,7.33394742 L12.8776746,7.27706571 L12.8813237,7.26948149 L12.9105165,7.23535247 L12.9397093,7.19743133 L12.9725512,7.16330231 L13.001744,7.12538118 L13.0309368,7.09125215 L13.0564805,7.05333102 L13.0856733,7.01540989 L13.1148661,6.98128086 L13.1440589,6.94335973 L13.147708,6.93956762 L13.2133918,6.9926572 L13.2097427,6.99644932 L13.1805499,7.03437045 L13.1513571,7.07229159 L13.1258134,7.11021272 L13.0966206,7.14813386 L13.0637787,7.18226288 L13.0345859,7.22018401 L13.0053931,7.25810515 L12.9762003,7.29223417 L12.9470075,7.3301553 L12.9397093,7.33394742 L12.9397093,7.33394742 Z M13.4688288,6.63619854 L13.3994959,6.58310895 L13.4140923,6.56414838 L13.439636,6.52243514 L13.4651797,6.484514 L13.4907234,6.44659287 L13.5162671,6.40487962 L13.5418108,6.36695849 L13.5637054,6.32524524 L13.5892491,6.2873241 L13.6147928,6.24561085 L13.6330383,6.21527395 L13.7023712,6.26457142 L13.6877748,6.29111622 L13.6622311,6.33282946 L13.6366874,6.37454271 L13.6111437,6.41246385 L13.5856,6.45417709 L13.5600563,6.49589034 L13.5345126,6.53381148 L13.5089689,6.57552473 L13.4834252,6.61344586 L13.4688288,6.63619854 L13.4688288,6.63619854 Z" id="Shape"></path>
                                    </g>
                                </g>
                            </g>
                        </g>
                    </g>
                </g>
            </g>
        </g>
    </g>
</svg>