<?xml version="1.0" encoding="UTF-8"?>
<svg width="42px" height="40px" viewBox="0 0 42 40" version="1.1" xmlns="http://www.w3.org/2000/svg" xmlns:xlink="http://www.w3.org/1999/xlink">
    <!-- Generator: Sketch 39.1 (31720) - http://www.bohemiancoding.com/sketch -->
    <title>kullan</title>
    <desc>Created with Sketch.</desc>
    <defs></defs>
    <g id="mobile" stroke="none" stroke-width="1" fill="none" fill-rule="evenodd">
        <g id="iPhone-6-Plus" transform="translate(-285.000000, -2423.000000)">
            <g id="Group-22" transform="translate(13.000000, 2200.000000)">
                <g id="Group-14-Copy-3" transform="translate(202.000000, 203.000000)">
                    <g id="kullan" transform="translate(70.000000, 20.000000)">
                        <path d="M17.3238794,37.8857025 C37.0404963,47.9437949 48.0457183,14.9650242 37.7772855,17.2775187 C27.5088527,19.5900132 37.1021093,2.0040764 35.4707961,1.90597634 C34.5749322,1.85210299 26.9125058,-4.22746611 9.90062323,8.12287728 C-7.11125935,20.4732207 -0.229763702,28.9310138 17.3238794,37.8857025 Z" id="Oval-3" fill-opacity="0.07" fill="#FF7377"></path>
                        <g id="steering-wheel-(1)" transform="translate(9.577465, 10.704225)" fill="#FF585B">
                            <g id="Layer_1">
                                <path d="M6.74423415,12.7372799 L4.0665493,12.7372799 C4.01082746,12.462412 3.97029049,12.1834947 3.94634683,11.9040933 C3.92328345,11.6345951 3.68639965,11.4353433 3.41641725,11.4578345 C3.14683099,11.4809419 2.94705106,11.7182218 2.97015845,11.9878081 C3.00950704,12.446743 3.08745599,12.9048415 3.20184859,13.3493398 C3.20193662,13.3496919 3.20202465,13.349956 3.20215669,13.3503081 C3.95801056,16.2854313 6.25079225,18.5779489 9.18600352,19.3334067 C9.22632042,19.343794 9.26734155,19.3488556 9.30809859,19.3488556 C9.415625,19.3488556 9.52143486,19.3133803 9.60827465,19.2461268 C9.72794894,19.1533011 9.79801937,19.0103873 9.79801937,18.8589789 L9.79801937,15.7910211 C9.79793134,14.1071743 8.42808099,12.7372799 6.74423415,12.7372799 L6.74423415,12.7372799 Z M8.8181338,18.1983715 C6.72425176,17.4602993 5.075,15.8110035 4.33692782,13.7170775 L6.74427817,13.7170775 C7.8878081,13.7170775 8.8181338,14.6474472 8.8181338,15.7910211 L8.8181338,18.1983715 L8.8181338,18.1983715 Z" id="Shape"></path>
                                <path d="M19.2350352,3.30017606 C17.1068222,1.17200704 14.2773327,0 11.2676056,0 C8.25792254,0 5.42838908,1.17200704 3.30022007,3.30017606 C1.17200704,5.42838908 0,8.25787852 0,11.2676056 C0,14.2772887 1.17200704,17.1068222 3.30022007,19.2350352 C5.4284331,21.3632482 8.25792254,22.5352113 11.2676056,22.5352113 C14.2773327,22.5352113 17.1068222,21.3632042 19.2350352,19.2349912 C21.3632042,17.1068222 22.5352113,14.2772887 22.5352113,11.2676056 C22.5352113,8.25787852 21.3632042,5.42838908 19.2350352,3.30017606 L19.2350352,3.30017606 Z M11.2676056,21.5554137 C5.59489437,21.5554137 0.979797535,16.9403169 0.979797535,11.2676056 C0.979797535,5.59489437 5.59489437,0.979797535 11.2676056,0.979797535 C16.9403169,0.979797535 21.5554137,5.59489437 21.5554137,11.2676056 C21.5554137,16.9403169 16.9403169,21.5554137 11.2676056,21.5554137 L11.2676056,21.5554137 Z" id="Shape"></path>
                                <path d="M19.2461268,12.9270687 C19.1533451,12.8073944 19.0104313,12.7372799 18.8589789,12.7372799 L15.7909331,12.7372799 C14.1071743,12.7372799 12.7372799,14.1071743 12.7372799,15.7909771 L12.7372799,18.8589349 C12.7372799,19.0104313 12.8073504,19.1533011 12.9270246,19.2460827 C13.0137764,19.3133803 13.1197183,19.3488116 13.2272447,19.3488116 C13.2680018,19.3488116 13.3090229,19.343706 13.3492958,19.3333627 C16.2849032,18.5777729 18.5779049,16.2847711 19.3334067,13.3492518 C19.3711708,13.2026849 19.3389525,13.046743 19.2461268,12.9270687 L19.2461268,12.9270687 Z M13.7170775,18.1983715 L13.7170775,15.7910211 C13.7170775,14.6474472 14.6474032,13.7170775 15.7909331,13.7170775 L18.1983275,13.7170775 C17.4602113,15.8109595 15.8109595,17.4602113 13.7170775,18.1983715 L13.7170775,18.1983715 Z" id="Shape"></path>
                                <path d="M11.2676056,9.30801056 C10.1871039,9.30801056 9.30801056,10.1870599 9.30801056,11.2676056 C9.30801056,12.3481074 10.1870599,13.2272007 11.2676056,13.2272007 C12.3481074,13.2272007 13.2272007,12.3481514 13.2272007,11.2676056 C13.2272007,10.1871039 12.3481074,9.30801056 11.2676056,9.30801056 L11.2676056,9.30801056 Z M11.2676056,12.2474032 C10.7273327,12.2474032 10.2878081,11.8078785 10.2878081,11.2676056 C10.2878081,10.7273327 10.7273327,10.2878081 11.2676056,10.2878081 C11.8078785,10.2878081 12.2474032,10.7273327 12.2474032,11.2676056 C12.2474032,11.8078785 11.8078785,12.2474032 11.2676056,12.2474032 L11.2676056,12.2474032 Z" id="Shape"></path>
                                <path d="M3.5506162,9.80167254 C3.28199824,9.76795775 3.03732394,9.95853873 3.0037412,10.2270687 L2.99797535,10.2743838 C2.96619718,10.5430458 3.15823063,10.7866637 3.42689261,10.8185299 C3.44643486,10.8208187 3.46588908,10.821963 3.48512324,10.821963 C3.72992958,10.821963 3.94146127,10.6387764 3.97099472,10.3897007 L3.97601232,10.3485915 C4.00955106,10.0801056 3.81914613,9.83525528 3.5506162,9.80167254 L3.5506162,9.80167254 Z" id="Shape"></path>
                                <path d="M19.2165493,8.77601232 C19.2161532,8.77477993 19.215625,8.77359155 19.2152289,8.77240317 C18.6960827,7.11742958 17.6411092,5.63204225 16.2442782,4.58943662 C14.7980194,3.50990317 13.0772007,2.93939261 11.2676056,2.93939261 C9.45801056,2.93939261 7.73710387,3.50994718 6.2909331,4.58939261 C4.89322183,5.63265845 3.83772007,7.1193662 3.31892606,8.7756162 C3.26861796,8.93635563 3.30431338,9.11161972 3.41355634,9.23983275 C3.5227993,9.36804577 3.6903169,9.43129401 3.85691021,9.40682218 C5.70360915,9.13824824 8.48833627,8.8181338 11.2675616,8.8181338 C13.8946743,8.8181338 16.5261884,9.10418134 18.3661972,9.36232394 C18.5317782,9.98085387 18.6159771,10.6203345 18.6159771,11.2676056 C18.6159771,11.5381162 18.8353433,11.7574824 19.1058539,11.7574824 C19.3763644,11.7574824 19.5957306,11.5381162 19.5957306,11.2676056 C19.5958187,10.4179137 19.4682658,9.57966549 19.2165493,8.77601232 L19.2165493,8.77601232 Z M11.2676056,7.83833627 C8.81483275,7.83833627 6.36412852,8.08160211 4.53120599,8.3240757 C5.68873239,5.6596831 8.30497359,3.91919014 11.2676056,3.91919014 C14.2302377,3.91919014 16.8464789,5.6596831 18.0040053,8.3240757 C16.1710827,8.08160211 13.7203785,7.83833627 11.2676056,7.83833627 L11.2676056,7.83833627 Z" id="Shape"></path>
                            </g>
                        </g>
                    </g>
                </g>
            </g>
        </g>
    </g>
</svg>