<?xml version="1.0" encoding="UTF-8"?>
<svg width="22px" height="16px" viewBox="0 0 22 16" version="1.1" xmlns="http://www.w3.org/2000/svg" xmlns:xlink="http://www.w3.org/1999/xlink">
    <!-- Generator: Sketch 39.1 (31720) - http://www.bohemiancoding.com/sketch -->
    <title>mail</title>
    <desc>Created with Sketch.</desc>
    <defs></defs>
    <g id="mobile" stroke="none" stroke-width="1" fill="none" fill-rule="evenodd">
        <g id="login" transform="translate(-345.000000, -245.000000)" fill="#888888">
            <g id="login-container" transform="translate(33.000000, 230.000000)">
                <g id="inputEmail">
                    <g id="mail" transform="translate(312.000000, 15.000000)">
                        <g id="Capa_1">
                            <g id="Group">
                                <g transform="translate(3.478261, 7.652174)" id="Shape">
                                    <path d="M13.9888696,4.52869565 C13.9033043,4.52869565 13.8177391,4.4973913 13.7509565,4.43408696 L9.74817391,0.678956522 C9.60834783,0.548173913 9.6013913,0.327652174 9.73286957,0.187826087 C9.86434783,0.0466086957 10.0834783,0.0403478261 10.2246957,0.172521739 L14.2274783,3.92765217 C14.3673043,4.05843478 14.3742609,4.27895652 14.2427826,4.41878261 C14.173913,4.49182609 14.082087,4.52869565 13.9888696,4.52869565 L13.9888696,4.52869565 Z"></path>
                                    <path d="M0.627478261,4.52869565 C0.534956522,4.52869565 0.442434783,4.49182609 0.373565217,4.41878261 C0.242086957,4.27895652 0.249043478,4.05843478 0.388869565,3.92765217 L4.39304348,0.172521739 C4.53356522,0.0417391304 4.75408696,0.0473043478 4.88486957,0.187826087 C5.01634783,0.327652174 5.0093913,0.548173913 4.86956522,0.678956522 L0.865391304,4.43408696 C0.798608696,4.4973913 0.713043478,4.52869565 0.627478261,4.52869565 L0.627478261,4.52869565 Z"></path>
                                </g>
                                <path d="M19.8344348,15.6723478 L1.73913043,15.6723478 C0.780521739,15.6723478 0,14.8925217 0,13.9332174 L0,2.07443478 C0,1.11513043 0.780521739,0.335304348 1.73913043,0.335304348 L19.8344348,0.335304348 C20.7930435,0.335304348 21.5735652,1.11513043 21.5735652,2.07443478 L21.5735652,13.9332174 C21.5735652,14.8925217 20.7930435,15.6723478 19.8344348,15.6723478 L19.8344348,15.6723478 Z M1.73913043,1.03095652 C1.16382609,1.03095652 0.695652174,1.49913043 0.695652174,2.07443478 L0.695652174,13.9332174 C0.695652174,14.5085217 1.16382609,14.9766957 1.73913043,14.9766957 L19.8344348,14.9766957 C20.4097391,14.9766957 20.877913,14.5085217 20.877913,13.9332174 L20.877913,2.07443478 C20.877913,1.49913043 20.4097391,1.03095652 19.8344348,1.03095652 L1.73913043,1.03095652 L1.73913043,1.03095652 Z" id="Shape"></path>
                                <path d="M10.7867826,9.75165217 C10.3241739,9.75165217 9.86156522,9.59791304 9.50956522,9.29113043 L0.577391304,1.49913043 C0.432695652,1.37321739 0.417391304,1.1533913 0.543304348,1.008 C0.670608696,0.863304348 0.88973913,0.850086957 1.03443478,0.974608696 L9.9666087,8.76591304 C10.4111304,9.1533913 11.1624348,9.1533913 11.6062609,8.76591304 L20.5273043,0.987130435 C20.6713043,0.861217391 20.8904348,0.875130435 21.0184348,1.02052174 C21.1443478,1.16591304 21.1297391,1.38504348 20.9850435,1.51165217 L12.064,9.29043478 C11.7113043,9.59791304 11.2493913,9.75165217 10.7867826,9.75165217 L10.7867826,9.75165217 Z" id="Shape"></path>
                            </g>
                        </g>
                    </g>
                </g>
            </g>
        </g>
    </g>
</svg>