<?xml version="1.0" encoding="UTF-8"?>
<svg width="14px" height="14px" viewBox="0 0 14 14" version="1.1" xmlns="http://www.w3.org/2000/svg" xmlns:xlink="http://www.w3.org/1999/xlink">
    <!-- Generator: Sketch 39.1 (31720) - http://www.bohemiancoding.com/sketch -->
    <title>menu (2)</title>
    <desc>Created with Sketch.</desc>
    <defs></defs>
    <g id="mobile" stroke="none" stroke-width="1" fill="none" fill-rule="evenodd">
        <g id="iPhone-6-Plus" transform="translate(-380.000000, -20.000000)" fill="#FFFFFF">
            <g id="menu-(2)" transform="translate(380.000000, 20.000000)">
                <g id="Group">
                    <path d="M12.9777778,0.111111111 L1.02222222,0.111111111 C0.511111111,0.111111111 0.111111111,0.511111111 0.111111111,1.02222222 C0.111111111,1.53333333 0.511111111,1.93333333 1.02222222,1.93333333 L13,1.93333333 C13.5111111,1.93333333 13.9111111,1.53333333 13.9111111,1.02222222 C13.8888889,0.511111111 13.4888889,0.111111111 12.9777778,0.111111111 L12.9777778,0.111111111 Z" id="Shape"></path>
                    <path d="M12.9777778,12.0888889 L1.02222222,12.0888889 C0.511111111,12.0888889 0.111111111,12.4888889 0.111111111,13 C0.111111111,13.5111111 0.511111111,13.9111111 1.02222222,13.9111111 L13,13.9111111 C13.5111111,13.9111111 13.9111111,13.5111111 13.9111111,13 C13.8888889,12.4888889 13.4888889,12.0888889 12.9777778,12.0888889 L12.9777778,12.0888889 Z" id="Shape"></path>
                    <path d="M12.9777778,6.08888889 L1.02222222,6.08888889 C0.511111111,6.08888889 0.111111111,6.48888889 0.111111111,7 C0.111111111,7.51111111 0.511111111,7.91111111 1.02222222,7.91111111 L13,7.91111111 C13.5111111,7.91111111 13.9111111,7.51111111 13.9111111,7 C13.8888889,6.48888889 13.4888889,6.08888889 12.9777778,6.08888889 L12.9777778,6.08888889 Z" id="Shape"></path>
                </g>
            </g>
        </g>
    </g>
</svg>