<?xml version="1.0" encoding="UTF-8"?>
<svg width="16px" height="22px" viewBox="0 0 16 22" version="1.1" xmlns="http://www.w3.org/2000/svg" xmlns:xlink="http://www.w3.org/1999/xlink">
    <!-- Generator: Sketch 39.1 (31720) - http://www.bohemiancoding.com/sketch -->
    <title>padlock</title>
    <desc>Created with Sketch.</desc>
    <defs></defs>
    <g id="mobile" stroke="none" stroke-width="1" fill="none" fill-rule="evenodd">
        <g id="login" transform="translate(-347.000000, -307.000000)" fill="#888888">
            <g id="login-container" transform="translate(33.000000, 230.000000)">
                <g id="inputPassword" transform="translate(0.000000, 66.000000)">
                    <g id="padlock" transform="translate(314.000000, 11.000000)">
                        <g id="Layer_1">
                            <g id="Group">
                                <path d="M13.359356,8.93420833 L13.359356,5.77775 C13.359356,2.592 10.7676992,0 7.58232932,0 C4.39695944,0 1.80530262,2.592 1.80530262,5.77779167 L1.80530262,8.93425 C0.792103447,9.14045833 0.027746326,10.039125 0.027746326,11.111125 L0.027746326,19.111125 C0.0277879871,20.336 1.02407273,21.3333333 2.24970211,21.3333333 L12.9149565,21.3333333 C14.1405859,21.3333333 15.1368706,20.336 15.1368706,19.111125 L15.1368706,11.111125 C15.1368706,10.0382083 14.3725552,9.14045833 13.359356,8.93420833 L13.359356,8.93420833 Z M2.69410159,5.77779167 C2.69410159,3.08179167 4.88760281,0.888916667 7.58232932,0.888916667 C10.2770558,0.888916667 12.470557,3.08179167 12.470557,5.77779167 L12.470557,8.88891667 L11.5817997,8.88891667 L11.5817997,5.77779167 C11.5817997,3.57245833 9.78737067,1.77779167 7.58232932,1.77779167 C5.37728797,1.77779167 3.58285891,3.57245833 3.58285891,5.77779167 L3.58285891,8.88891667 L2.69410159,8.88891667 L2.69410159,5.77779167 L2.69410159,5.77779167 Z M10.6930424,5.77779167 L10.6930424,8.88891667 L4.47161622,8.88891667 L4.47161622,5.77779167 C4.47161622,4.06220833 5.86701478,2.66666667 7.58232932,2.66666667 C9.29764385,2.66666667 10.6930424,4.06220833 10.6930424,5.77779167 L10.6930424,5.77779167 Z M14.2481133,19.111125 C14.2481133,19.84625 13.6499842,20.4444583 12.9149565,20.4444583 L2.24970211,20.4444583 C1.51467443,20.4444583 0.916545302,19.84625 0.916545302,19.111125 L0.916545302,11.111125 C0.916545302,10.376 1.51467443,9.77779167 2.24970211,9.77779167 L12.9149565,9.77779167 C13.6499842,9.77779167 14.2481133,10.376 14.2481133,11.111125 L14.2481133,19.111125 L14.2481133,19.111125 Z" id="Shape"></path>
                                <path d="M7.58232932,11.5555417 C6.35669994,11.5555417 5.3604152,12.552875 5.3604152,13.77775 C5.3604152,14.6222083 5.85368322,15.3892917 6.59670983,15.760875 L6.25363026,18.16 C6.23496606,18.287125 6.27316934,18.416875 6.35761649,18.5137917 C6.44206364,18.6106667 6.56471407,18.6666667 6.693572,18.6666667 L8.47112829,18.6666667 C8.59998623,18.6666667 8.72263666,18.6097917 8.80708381,18.512875 C8.89153096,18.416 8.92973423,18.2870833 8.91107004,18.1590833 L8.56799047,15.7599583 C9.31101708,15.3892917 9.8042851,14.6221667 9.8042851,13.77775 C9.80424344,12.552875 8.80795869,11.5555417 7.58232932,11.5555417 L7.58232932,11.5555417 Z M7.95382179,15.0497917 C7.74230813,15.112 7.60807591,15.3209167 7.63919679,15.5395833 L7.95915442,17.7777917 L7.20546255,17.7777917 L7.52542019,15.5395833 C7.55741595,15.3209167 7.42230884,15.1120417 7.21079518,15.0497917 C6.63578799,14.8817917 6.24917251,14.3706667 6.24917251,13.7777917 C6.24917251,13.0426667 6.84730165,12.4444583 7.58232932,12.4444583 C8.31735699,12.4444583 8.91548612,13.0426667 8.91548612,13.7777917 C8.91548612,14.3706667 8.52887065,14.8817917 7.95382179,15.0497917 L7.95382179,15.0497917 Z" id="Shape"></path>
                            </g>
                        </g>
                    </g>
                </g>
            </g>
        </g>
    </g>
</svg>