<?xml version="1.0" encoding="iso-8859-1"?>
<!-- Generator: Adobe Illustrator 16.0.0, SVG Export Plug-In . SVG Version: 6.00 Build 0)  -->
<!DOCTYPE svg PUBLIC "-//W3C//DTD SVG 1.1//EN" "http://www.w3.org/Graphics/SVG/1.1/DTD/svg11.dtd">
<svg xmlns="http://www.w3.org/2000/svg" xmlns:xlink="http://www.w3.org/1999/xlink" version="1.1" id="Capa_1" x="0px" y="0px" width="512px" height="512px" viewBox="0 0 612 612" style="enable-background:new 0 0 612 612;" xml:space="preserve">
<g>
	<g>
		<path d="M305.995,0C136.993,0,0,137.002,0,305.995C0,474.997,136.993,612,305.995,612C474.997,612,612,474.997,612,305.995    C612,137.002,474.997,0,305.995,0z M325.685,532.234v-26.532c0-10.875-8.813-19.689-19.689-19.689s-19.69,8.813-19.69,19.689    v26.532c-109.584-9.472-197.078-96.955-206.54-206.55h26.532c10.876,0,19.69-8.813,19.69-19.689s-8.814-19.69-19.69-19.69H79.766    c9.461-109.584,96.945-197.068,206.529-206.53v26.542c0,10.876,8.814,19.69,19.69,19.69s19.69-8.814,19.69-19.69V79.766    c109.594,9.461,197.068,96.945,206.55,206.529h-26.542c-10.876,0-19.69,8.814-19.69,19.69s8.814,19.69,19.69,19.69h26.542    C522.753,435.279,435.279,522.763,325.685,532.234z" fill="#888888"/>
		<path d="M188.374,357.665l15.238-12.698c23.873-21.323,43.912-43.414,43.912-71.081c0-29.958-20.537-51.81-57.875-51.81    c-22.359,0-41.65,7.619-54.1,17.021l10.926,27.677c8.645-6.603,21.074-13.714,35.296-13.714c19.052,0,27.179,10.667,27.179,24.122    c-0.508,19.292-18.046,37.836-54.09,70.084l-21.323,19.302v23.365h117.044v-31.751h-62.207V357.665z" fill="#888888"/>
		<path d="M360.254,224.865h-47.247l-62.476,100.551v25.157h73.132v39.351h36.591v-39.351h19.79v-28.952h-19.79V224.865z     M323.663,285.06v36.561h-37.059v-0.508l22.08-36.043c5.598-10.438,9.91-20.099,15.259-30.745h0.995    C324.171,264.962,323.663,275.15,323.663,285.06z" fill="#888888"/>
		<path d="M447.529,299.472c-5.06,0-10.309,1.255-14.282,3.436c-4.342,2.35-7.968,5.249-10.855,9.043h-0.368v-50.465h-27.499    v128.447h27.499v-52.467c0-1.992,0.188-4.342,0.926-6.145c1.972-4.881,6.504-9.592,13.734-9.592    c10.317,0,14.302,7.938,14.302,19.531v48.672h27.498v-51.75C478.474,311.572,465.088,299.472,447.529,299.472z" fill="#888888"/>
	</g>
</g>
<g>
</g>
<g>
</g>
<g>
</g>
<g>
</g>
<g>
</g>
<g>
</g>
<g>
</g>
<g>
</g>
<g>
</g>
<g>
</g>
<g>
</g>
<g>
</g>
<g>
</g>
<g>
</g>
<g>
</g>
</svg>
