<?xml version="1.0" encoding="UTF-8"?>
<svg width="19px" height="18px" viewBox="0 0 19 18" version="1.1" xmlns="http://www.w3.org/2000/svg" xmlns:xlink="http://www.w3.org/1999/xlink">
    <!-- Generator: Sketch 39.1 (31720) - http://www.bohemiancoding.com/sketch -->
    <title>profile (1)</title>
    <desc>Created with Sketch.</desc>
    <defs></defs>
    <g id="mobile" stroke="none" stroke-width="1" fill="none" fill-rule="evenodd">
        <g id="signUpMail" transform="translate(-347.000000, -213.000000)" fill="#888888">
            <g id="signup-container" transform="translate(32.000000, 133.000000)">
                <g id="profile-(1)" transform="translate(315.000000, 80.000000)">
                    <g id="Capa_1">
                        <path d="M9.40945213,10.0893346 C12.1997489,10.0893346 14.4629569,7.82969888 14.4629569,5.04388104 C14.4629569,2.2580632 12.1997154,0.0138847584 9.40945213,0.0138847584 C6.61918883,0.0138847584 4.35594734,2.27352045 4.35594734,5.04388104 C4.35594734,7.81424164 6.61915532,10.0893346 9.40945213,10.0893346 L9.40945213,10.0893346 Z M9.40945213,0.900518587 C11.6919184,0.900518587 13.5594283,2.76501577 13.5594283,5.04388297 C13.5594283,7.32275018 11.6919184,9.18721004 9.40945213,9.18721004 C7.12698581,9.18721004 5.25947599,7.32271286 5.25947599,5.04384565 C5.25947599,2.76497845 7.12694843,0.900518587 9.40945213,0.900518587 L9.40945213,0.900518587 Z" id="Shape"></path>
                        <path d="M0.666560106,17.9670446 L18.2143388,17.9670446 C18.5863739,17.9670446 18.8808989,17.6729888 18.8808989,17.3015465 C18.8808989,13.8192491 16.0441229,10.9715019 12.5407532,10.9715019 L6.34014574,10.9715019 C2.85229149,10.9715019 0,13.8037584 0,17.3015465 C0,17.6729888 0.294525,17.9670446 0.666560106,17.9670446 L0.666560106,17.9670446 Z M6.08404799,11.8413903 L12.7968509,11.8413903 C15.5491023,11.8413903 17.8146742,14.1447051 18.1671223,17.1276357 L0.713776596,17.1276357 C1.06618841,14.1636015 3.3317966,11.8413903 6.08404799,11.8413903 L6.08404799,11.8413903 Z" id="Shape"></path>
                    </g>
                </g>
            </g>
        </g>
    </g>
</svg>