<?xml version="1.0" encoding="UTF-8"?>
<svg width="17px" height="20px" viewBox="0 0 17 20" version="1.1" xmlns="http://www.w3.org/2000/svg" xmlns:xlink="http://www.w3.org/1999/xlink">
    <!-- Generator: Sketch 39.1 (31720) - http://www.bohemiancoding.com/sketch -->
    <title>placeholder</title>
    <desc>Created with Sketch.</desc>
    <defs></defs>
    <g id="mobile" stroke="none" stroke-width="1" fill="none" fill-rule="evenodd">
        <g id="signUpMailForm" transform="translate(-351.000000, -1108.000000)" fill="#888888">
            <g id="inputAdres1" transform="translate(33.000000, 1096.000000)">
                <g id="placeholder" transform="translate(318.000000, 12.000000)">
                    <g id="Capa_1">
                        <g id="Group">
                            <path d="M8.07797132,0 C3.62960049,0 0.00844093136,3.59748428 0.00844093136,8.01677149 C0.00844093136,8.51991614 0.0548660539,9.02725367 0.151936765,9.52201258 C0.15615723,9.55136268 0.173039093,9.639413 0.206802818,9.79035639 C0.329196323,10.3312369 0.510676348,10.8637317 0.747022426,11.3710692 C1.61643836,13.4046122 3.52830931,16.5283019 7.7234522,19.8742138 C7.82896384,19.9580713 7.95557781,20 8.08219178,20 C8.20880575,20 8.33541972,19.9580713 8.44093136,19.8742138 C12.6318538,16.5283019 14.5479452,13.4046122 15.4173611,11.3710692 C15.6537072,10.8637317 15.8351872,10.3354298 15.9575807,9.79035639 C15.9913445,9.639413 16.0082263,9.55136268 16.0124468,9.52201258 C16.105297,9.02725367 16.1559426,8.51991614 16.1559426,8.01677149 C16.1475017,3.59748428 12.5263421,0 8.07797132,0 L8.07797132,0 Z M14.881362,9.32494759 C14.881362,9.33333333 14.8771415,9.34171908 14.8771415,9.35010482 C14.8729211,9.37106918 14.8602597,9.43396226 14.8391573,9.53039832 L14.8391573,9.53878407 C14.7336457,10.0083857 14.5774885,10.4654088 14.3706856,10.9056604 C14.3664652,10.9098532 14.3664652,10.918239 14.3622447,10.9224319 C13.5730176,12.7798742 11.8426267,15.6142558 8.07797132,18.7044025 C4.31331593,15.6142558 2.582925,12.7798742 1.79369791,10.9224319 C1.78947745,10.918239 1.78947745,10.9098532 1.78525698,10.9056604 C1.58267463,10.4696017 1.4265174,10.0083857 1.31678529,9.53878407 L1.31678529,9.53039832 C1.2914625,9.43396226 1.28302157,9.37106918 1.2788011,9.35010482 C1.2788011,9.34171908 1.27458064,9.33333333 1.27458064,9.32075472 C1.19017132,8.88888889 1.14796667,8.45283019 1.14796667,8.01257862 C1.14796667,4.21802935 4.25844987,1.1278826 8.07797132,1.1278826 C11.8974928,1.1278826 15.007976,4.21802935 15.007976,8.01257862 C15.007976,8.45702306 14.9657713,8.89727463 14.881362,9.32494759 L14.881362,9.32494759 Z" id="Shape"></path>
                            <path d="M8.07797132,3.01467505 C5.25447977,3.01467505 2.95432598,5.29979036 2.95432598,8.1048218 C2.95432598,10.9098532 5.25447977,13.1949686 8.07797132,13.1949686 C10.9014629,13.1949686 13.2016167,10.9098532 13.2016167,8.1048218 C13.2016167,5.29979036 10.9014629,3.01467505 8.07797132,3.01467505 L8.07797132,3.01467505 Z M8.07797132,12.0628931 C5.87910869,12.0628931 4.09385171,10.2851153 4.09385171,8.1048218 C4.09385171,5.9245283 5.88332916,4.14675052 8.07797132,4.14675052 C10.2726135,4.14675052 12.0620909,5.9245283 12.0620909,8.1048218 C12.0620909,10.2851153 10.2768339,12.0628931 8.07797132,12.0628931 L8.07797132,12.0628931 Z" id="Shape"></path>
                        </g>
                    </g>
                </g>
            </g>
        </g>
    </g>
</svg>