<?xml version="1.0" encoding="UTF-8"?>
<svg width="564px" height="538px" viewBox="0 0 564 538" version="1.1" xmlns="http://www.w3.org/2000/svg" xmlns:xlink="http://www.w3.org/1999/xlink">
    <!-- Generator: Sketch 39.1 (31720) - http://www.bohemiancoding.com/sketch -->
    <title>profile</title>
    <desc>Created with Sketch.</desc>
    <defs></defs>
    <g id="Page-1" stroke="none" stroke-width="1" fill="none" fill-rule="evenodd">
        <g id="profile" fill="#FFFFFF">
            <path d="M280.79,301.559 C364.056,301.559 431.593,234.021 431.593,150.756 C431.593,67.491 364.055,0.415 280.79,0.415 C197.525,0.415 129.987,67.953 129.987,150.756 C129.987,233.559 197.524,301.559 280.79,301.559 L280.79,301.559 Z M391.811,150.756 C391.811,211.818 341.851,261.776 280.79,261.776 C219.729,261.776 169.769,211.817 169.769,150.755 C169.769,89.693 219.728,39.735 280.79,39.735 C341.851,39.735 391.811,89.694 391.811,150.756 Z" id="Shape"></path>
            <circle id="Oval" cx="280.5" cy="150.5" r="115.5"></circle>
            <path d="M543.539,537.015 C554.641,537.015 563.43,528.226 563.43,517.124 C563.43,413.042 478.777,327.926 374.232,327.926 L189.198,327.926 C85.116,327.926 0,412.579 0,517.124 C0,528.226 8.789,537.015 19.891,537.015 L543.539,537.015 Z M189.198,367.708 L374.232,367.708 C450.096,367.708 512.545,424.144 522.26,497.232 L41.17,497.232 C50.884,424.607 113.334,367.708 189.198,367.708 L189.198,367.708 Z" id="Shape"></path>
            <polygon id="Rectangle" points="86.2998352 363 458.111328 360.075166 541.684448 499.000001 30 499"></polygon>
        </g>
    </g>
</svg>