<?xml version="1.0" encoding="UTF-8"?>
<svg width="48px" height="40px" viewBox="0 0 48 40" version="1.1" xmlns="http://www.w3.org/2000/svg" xmlns:xlink="http://www.w3.org/1999/xlink">
    <!-- Generator: Sketch 39.1 (31720) - http://www.bohemiancoding.com/sketch -->
    <title>rezerve-et</title>
    <desc>Created with Sketch.</desc>
    <defs></defs>
    <g id="mobile" stroke="none" stroke-width="1" fill="none" fill-rule="evenodd">
        <g id="iPhone-6-Plus" transform="translate(-283.000000, -2220.000000)">
            <g id="Group-22" transform="translate(13.000000, 2200.000000)">
                <g id="Group-14-Copy" transform="translate(201.000000, 0.000000)">
                    <g id="rezerve-et" transform="translate(69.000000, 20.000000)">
                        <path d="M25.5009088,39.0660714 C45.029709,46.0086482 57.3732063,5.26863055 36.3032343,8.77918017 C15.2332623,12.2897298 23.8316275,6.21394877 22.3298688,6.12363955 C21.505152,6.07404468 20.4603817,0.432981271 19.6184518,0.428406565 C7.02615125,0.359985112 -4.49094827,3.80335977 2.46709818,18.1404801 C5.24597206,23.8663759 15.2250941,35.4129728 25.5009088,39.0660714 Z" id="Oval-3" fill-opacity="0.07" fill="#FF7377"></path>
                        <g id="booking" transform="translate(15.774648, 10.704225)" fill="#FF585B">
                            <g id="Capa_1">
                                <path d="M20.657277,3.00469484 L20.2816901,3.00469484 L20.2816901,1.12676056 C20.2816901,0.505539906 19.7761502,0 19.1549296,0 L18.4037559,0 C17.7825352,0 17.2769953,0.505539906 17.2769953,1.12676056 L17.2769953,3.00469484 L5.25821596,3.00469484 L5.25821596,1.12676056 C5.25821596,0.505539906 4.75267606,0 4.1314554,0 L3.38028169,0 C2.75906103,0 2.25352113,0.505539906 2.25352113,1.12676056 L2.25352113,3.00469484 L1.87793427,3.00469484 C0.842441315,3.00469484 0,3.84713615 0,4.88262911 L0,20.657277 C0,21.69277 0.842441315,22.5352113 1.87793427,22.5352113 L20.657277,22.5352113 C21.69277,22.5352113 22.5352113,21.69277 22.5352113,20.657277 L22.5352113,4.88262911 C22.5352113,3.84713615 21.69277,3.00469484 20.657277,3.00469484 L20.657277,3.00469484 Z M18.028169,3.38028169 L18.028169,1.12676056 C18.028169,0.91943662 18.1964319,0.751173709 18.4037559,0.751173709 L19.1549296,0.751173709 C19.3622535,0.751173709 19.5305164,0.91943662 19.5305164,1.12676056 L19.5305164,3.38028169 L19.5305164,4.88262911 C19.5305164,5.08995305 19.3622535,5.25821596 19.1549296,5.25821596 L18.4037559,5.25821596 C18.1964319,5.25821596 18.028169,5.08995305 18.028169,4.88262911 L18.028169,3.38028169 L18.028169,3.38028169 Z M3.00469484,3.38028169 L3.00469484,1.12676056 C3.00469484,0.91943662 3.17295775,0.751173709 3.38028169,0.751173709 L4.1314554,0.751173709 C4.33877934,0.751173709 4.50704225,0.91943662 4.50704225,1.12676056 L4.50704225,3.38028169 L4.50704225,4.88262911 C4.50704225,5.08995305 4.33877934,5.25821596 4.1314554,5.25821596 L3.38028169,5.25821596 C3.17295775,5.25821596 3.00469484,5.08995305 3.00469484,4.88262911 L3.00469484,3.38028169 L3.00469484,3.38028169 Z M21.7840376,20.657277 C21.7840376,21.2784977 21.2784977,21.7840376 20.657277,21.7840376 L1.87793427,21.7840376 C1.25671362,21.7840376 0.751173709,21.2784977 0.751173709,20.657277 L0.751173709,9.76525822 L21.7840376,9.76525822 L21.7840376,20.657277 L21.7840376,20.657277 Z M21.7840376,9.01408451 L0.751173709,9.01408451 L0.751173709,4.88262911 C0.751173709,4.26140845 1.25671362,3.75586854 1.87793427,3.75586854 L2.25352113,3.75586854 L2.25352113,4.88262911 C2.25352113,5.50384977 2.75906103,6.00938967 3.38028169,6.00938967 L4.1314554,6.00938967 C4.75267606,6.00938967 5.25821596,5.50384977 5.25821596,4.88262911 L5.25821596,3.75586854 L17.2769953,3.75586854 L17.2769953,4.88262911 C17.2769953,5.50384977 17.7825352,6.00938967 18.4037559,6.00938967 L19.1549296,6.00938967 C19.7761502,6.00938967 20.2816901,5.50384977 20.2816901,4.88262911 L20.2816901,3.75586854 L20.657277,3.75586854 C21.2784977,3.75586854 21.7840376,4.26140845 21.7840376,4.88262911 L21.7840376,9.01408451 L21.7840376,9.01408451 Z" id="Shape"></path>
                                <path d="M15.399061,4.88262911 L7.13615023,4.88262911 C6.9284507,4.88262911 6.76056338,5.05051643 6.76056338,5.25821596 L6.76056338,7.51173709 C6.76056338,7.71943662 6.9284507,7.88732394 7.13615023,7.88732394 L15.399061,7.88732394 C15.6067606,7.88732394 15.7746479,7.71943662 15.7746479,7.51173709 L15.7746479,5.25821596 C15.7746479,5.05051643 15.6067606,4.88262911 15.399061,4.88262911 L15.399061,4.88262911 Z M15.0234742,7.13615023 L7.51173709,7.13615023 L7.51173709,5.63380282 L15.0234742,5.63380282 L15.0234742,7.13615023 L15.0234742,7.13615023 Z" id="Shape"></path>
                                <path d="M4.88262911,10.8920188 L2.62910798,10.8920188 C2.42140845,10.8920188 2.25352113,11.0599061 2.25352113,11.2676056 L2.25352113,13.1455399 C2.25352113,13.3532394 2.42140845,13.5211268 2.62910798,13.5211268 L4.88262911,13.5211268 C5.09032864,13.5211268 5.25821596,13.3532394 5.25821596,13.1455399 L5.25821596,11.2676056 C5.25821596,11.0599061 5.09032864,10.8920188 4.88262911,10.8920188 L4.88262911,10.8920188 Z M4.50704225,12.7699531 L3.00469484,12.7699531 L3.00469484,11.6431925 L4.50704225,11.6431925 L4.50704225,12.7699531 L4.50704225,12.7699531 Z" id="Shape"></path>
                                <path d="M9.76525822,10.8920188 L7.51173709,10.8920188 C7.30403756,10.8920188 7.13615023,11.0599061 7.13615023,11.2676056 L7.13615023,13.1455399 C7.13615023,13.3532394 7.30403756,13.5211268 7.51173709,13.5211268 L9.76525822,13.5211268 C9.97295775,13.5211268 10.1408451,13.3532394 10.1408451,13.1455399 L10.1408451,11.2676056 C10.1408451,11.0599061 9.97295775,10.8920188 9.76525822,10.8920188 L9.76525822,10.8920188 Z M9.38967136,12.7699531 L7.88732394,12.7699531 L7.88732394,11.6431925 L9.38967136,11.6431925 L9.38967136,12.7699531 L9.38967136,12.7699531 Z" id="Shape"></path>
                                <path d="M15.0234742,10.8920188 L12.7699531,10.8920188 C12.5622535,10.8920188 12.3943662,11.0599061 12.3943662,11.2676056 L12.3943662,13.1455399 C12.3943662,13.3532394 12.5622535,13.5211268 12.7699531,13.5211268 L15.0234742,13.5211268 C15.2311737,13.5211268 15.399061,13.3532394 15.399061,13.1455399 L15.399061,11.2676056 C15.399061,11.0599061 15.2311737,10.8920188 15.0234742,10.8920188 L15.0234742,10.8920188 Z M14.6478873,12.7699531 L13.1455399,12.7699531 L13.1455399,11.6431925 L14.6478873,11.6431925 L14.6478873,12.7699531 L14.6478873,12.7699531 Z" id="Shape"></path>
                                <path d="M19.9061033,10.8920188 L17.6525822,10.8920188 C17.4448826,10.8920188 17.2769953,11.0599061 17.2769953,11.2676056 L17.2769953,13.1455399 C17.2769953,13.3532394 17.4448826,13.5211268 17.6525822,13.5211268 L19.9061033,13.5211268 C20.1138028,13.5211268 20.2816901,13.3532394 20.2816901,13.1455399 L20.2816901,11.2676056 C20.2816901,11.0599061 20.1138028,10.8920188 19.9061033,10.8920188 L19.9061033,10.8920188 Z M19.5305164,12.7699531 L18.028169,12.7699531 L18.028169,11.6431925 L19.5305164,11.6431925 L19.5305164,12.7699531 L19.5305164,12.7699531 Z" id="Shape"></path>
                                <path d="M4.88262911,14.6478873 L2.62910798,14.6478873 C2.42140845,14.6478873 2.25352113,14.8157746 2.25352113,15.0234742 L2.25352113,16.9014085 C2.25352113,17.109108 2.42140845,17.2769953 2.62910798,17.2769953 L4.88262911,17.2769953 C5.09032864,17.2769953 5.25821596,17.109108 5.25821596,16.9014085 L5.25821596,15.0234742 C5.25821596,14.8157746 5.09032864,14.6478873 4.88262911,14.6478873 L4.88262911,14.6478873 Z M4.50704225,16.5258216 L3.00469484,16.5258216 L3.00469484,15.399061 L4.50704225,15.399061 L4.50704225,16.5258216 L4.50704225,16.5258216 Z" id="Shape"></path>
                                <path d="M9.76525822,14.6478873 L7.51173709,14.6478873 C7.30403756,14.6478873 7.13615023,14.8157746 7.13615023,15.0234742 L7.13615023,16.9014085 C7.13615023,17.109108 7.30403756,17.2769953 7.51173709,17.2769953 L9.76525822,17.2769953 C9.97295775,17.2769953 10.1408451,17.109108 10.1408451,16.9014085 L10.1408451,15.0234742 C10.1408451,14.8157746 9.97295775,14.6478873 9.76525822,14.6478873 L9.76525822,14.6478873 Z M9.38967136,16.5258216 L7.88732394,16.5258216 L7.88732394,15.399061 L9.38967136,15.399061 L9.38967136,16.5258216 L9.38967136,16.5258216 Z" id="Shape"></path>
                                <path d="M15.0234742,14.6478873 L12.7699531,14.6478873 C12.5622535,14.6478873 12.3943662,14.8157746 12.3943662,15.0234742 L12.3943662,16.9014085 C12.3943662,17.109108 12.5622535,17.2769953 12.7699531,17.2769953 L15.0234742,17.2769953 C15.2311737,17.2769953 15.399061,17.109108 15.399061,16.9014085 L15.399061,15.0234742 C15.399061,14.8157746 15.2311737,14.6478873 15.0234742,14.6478873 L15.0234742,14.6478873 Z M14.6478873,16.5258216 L13.1455399,16.5258216 L13.1455399,15.399061 L14.6478873,15.399061 L14.6478873,16.5258216 L14.6478873,16.5258216 Z" id="Shape"></path>
                                <path d="M19.9061033,14.6478873 L17.6525822,14.6478873 C17.4448826,14.6478873 17.2769953,14.8157746 17.2769953,15.0234742 L17.2769953,16.9014085 C17.2769953,17.109108 17.4448826,17.2769953 17.6525822,17.2769953 L19.9061033,17.2769953 C20.1138028,17.2769953 20.2816901,17.109108 20.2816901,16.9014085 L20.2816901,15.0234742 C20.2816901,14.8157746 20.1138028,14.6478873 19.9061033,14.6478873 L19.9061033,14.6478873 Z M19.5305164,16.5258216 L18.028169,16.5258216 L18.028169,15.399061 L19.5305164,15.399061 L19.5305164,16.5258216 L19.5305164,16.5258216 Z" id="Shape"></path>
                                <path d="M4.88262911,18.4037559 L2.62910798,18.4037559 C2.42140845,18.4037559 2.25352113,18.5716432 2.25352113,18.7793427 L2.25352113,20.657277 C2.25352113,20.8649765 2.42140845,21.0328638 2.62910798,21.0328638 L4.88262911,21.0328638 C5.09032864,21.0328638 5.25821596,20.8649765 5.25821596,20.657277 L5.25821596,18.7793427 C5.25821596,18.5716432 5.09032864,18.4037559 4.88262911,18.4037559 L4.88262911,18.4037559 Z M4.50704225,20.2816901 L3.00469484,20.2816901 L3.00469484,19.1549296 L4.50704225,19.1549296 L4.50704225,20.2816901 L4.50704225,20.2816901 Z" id="Shape"></path>
                                <path d="M9.76525822,18.4037559 L7.51173709,18.4037559 C7.30403756,18.4037559 7.13615023,18.5716432 7.13615023,18.7793427 L7.13615023,20.657277 C7.13615023,20.8649765 7.30403756,21.0328638 7.51173709,21.0328638 L9.76525822,21.0328638 C9.97295775,21.0328638 10.1408451,20.8649765 10.1408451,20.657277 L10.1408451,18.7793427 C10.1408451,18.5716432 9.97295775,18.4037559 9.76525822,18.4037559 L9.76525822,18.4037559 Z M9.38967136,20.2816901 L7.88732394,20.2816901 L7.88732394,19.1549296 L9.38967136,19.1549296 L9.38967136,20.2816901 L9.38967136,20.2816901 Z" id="Shape"></path>
                                <path d="M15.1106103,18.1633803 L13.4959624,20.1010329 L12.6599061,19.2649765 L12.1288263,19.7960563 L13.2555869,20.9228169 C13.3258216,20.9938028 13.4215962,21.0328638 13.5211268,21.0328638 C13.5267606,21.0328638 13.5323944,21.0328638 13.5380282,21.0324883 C13.6435681,21.0276056 13.7419718,20.9787793 13.8099531,20.8980282 L15.6878873,18.644507 L15.1106103,18.1633803 L15.1106103,18.1633803 Z" id="Shape"></path>
                                <path d="M19.6176526,18.1633803 L18.0030047,20.1010329 L17.1669484,19.2649765 L16.6358685,19.7960563 L17.7626291,20.9228169 C17.8328638,20.9938028 17.9286385,21.0328638 18.028169,21.0328638 C18.0338028,21.0328638 18.0394366,21.0328638 18.0450704,21.0324883 C18.1506103,21.0276056 18.2490141,20.9787793 18.3169953,20.8980282 L20.1949296,18.644507 L19.6176526,18.1633803 L19.6176526,18.1633803 Z" id="Shape"></path>
                            </g>
                        </g>
                    </g>
                </g>
            </g>
        </g>
    </g>
</svg>