<?xml version="1.0" encoding="UTF-8"?>
<svg width="10px" height="7px" viewBox="0 0 10 7" version="1.1" xmlns="http://www.w3.org/2000/svg" xmlns:xlink="http://www.w3.org/1999/xlink">
    <!-- Generator: Sketch 39.1 (31720) - http://www.bohemiancoding.com/sketch -->
    <title>right-arrow</title>
    <desc>Created with Sketch.</desc>
    <defs></defs>
    <g id="mobile" stroke="none" stroke-width="1" fill="none" fill-rule="evenodd">
        <g id="iPhone-6-Plus" transform="translate(-239.000000, -432.000000)" fill="#FF595F">
            <g id="Group-4-Copy" transform="translate(148.000000, 302.000000)">
                <g id="Group-6" transform="translate(0.000000, 123.000000)">
                    <g id="right-arrow" transform="translate(91.000000, 7.000000)">
                        <g id="Capa_1">
                            <path d="M6.45369565,0.306478261 C6.32313043,0.171347826 6.10582609,0.171347826 5.97069565,0.306478261 C5.84013043,0.437043478 5.84013043,0.654347826 5.97069565,0.784608696 L8.41978261,3.23369565 L0.338130435,3.23369565 C0.14973913,3.234 0,3.38373913 0,3.57213043 C0,3.76052174 0.14973913,3.91513043 0.338130435,3.91513043 L8.41978261,3.91513043 L5.97069565,6.35965217 C5.84013043,6.49478261 5.84013043,6.7123913 5.97069565,6.84265217 C6.10582609,6.97778261 6.32343478,6.97778261 6.45369565,6.84265217 L9.48256522,3.81378261 C9.61769565,3.68321739 9.61769565,3.46591304 9.48256522,3.33565217 L6.45369565,0.306478261 L6.45369565,0.306478261 Z" id="Shape"></path>
                        </g>
                    </g>
                </g>
            </g>
        </g>
    </g>
</svg>