<?xml version="1.0" encoding="UTF-8"?>
<svg width="24px" height="24px" viewBox="0 0 24 24" version="1.1" xmlns="http://www.w3.org/2000/svg" xmlns:xlink="http://www.w3.org/1999/xlink">
    <!-- Generator: Sketch 46.2 (44496) - http://www.bohemiancoding.com/sketch -->
    <title>magnifying-glass (2)</title>
    <desc>Created with Sketch.</desc>
    <defs></defs>
    <g id="Page-1" stroke="none" stroke-width="1" fill="none" fill-rule="evenodd">
        <g id="desktop" transform="translate(-1049.000000, -323.000000)" fill-rule="nonzero" fill="#FFFFFF">
            <g id="main" transform="translate(0.000000, 190.000000)">
                <g id="search-widget" transform="translate(336.000000, 110.000000)">
                    <g id="btn-book" transform="translate(695.000000, 10.000000)">
                        <g id="magnifying-glass-(2)" transform="translate(18.000000, 13.000000)">
                            <path d="M23.466487,20.8559671 L18.5193807,15.9090004 C19.7115884,14.1879561 20.3079953,12.2693363 20.3079953,10.1541512 C20.3079953,8.77915462 20.041062,7.46412281 19.5071955,6.20935886 C18.9736825,4.95439285 18.2524474,3.87270328 17.3437931,2.96403756 C16.4351389,2.05537184 15.3536146,1.33412759 14.098917,0.800557381 C12.8438153,0.266835621 11.5289011,0 10.1539219,0 C8.77904371,0 7.46402851,0.266835621 6.20928042,0.800557381 C4.95433026,1.33412759 3.87265435,2.05537184 2.96400011,2.96403756 C2.05524484,3.87270328 1.33411073,4.95459492 0.80049675,6.20935886 C0.26683225,7.46427436 0,8.77915462 0,10.1541512 C0,11.5290467 0.26683225,12.8436239 0.80049675,14.0987415 C1.33406022,15.3535054 2.05524484,16.4350434 2.96400011,17.3437092 C3.87265435,18.252678 4.95453233,18.9736191 6.20928042,19.5074924 C7.46418006,20.0411132 8.77904371,20.3078983 10.1539219,20.3078983 C12.2695349,20.3078983 14.1878274,19.7114333 15.908951,18.5193115 L20.8560573,23.4519312 C21.2022016,23.8172262 21.6343264,24 22.1539976,24 C22.6539671,24 23.0869001,23.8172767 23.4519885,23.4519312 C23.8172284,23.0866866 23.9999999,22.6539502 23.9999999,22.1539744 C24.0001515,21.6446528 23.8222801,21.2117648 23.466487,20.8559671 Z M14.718865,14.7186468 C13.4544681,15.9832617 11.9329383,16.6155439 10.1539219,16.6155439 C8.37520861,16.6155439 6.85367879,15.9831102 5.58918086,14.7186468 C4.32468293,13.4542339 3.69245923,11.932887 3.69245923,10.1538481 C3.69245923,8.37511235 4.32483449,6.85331071 5.58918086,5.5890494 C6.8534262,4.32448498 8.37520861,3.69230381 10.1539219,3.69230381 C11.9327362,3.69230381 13.454266,4.32473757 14.718865,5.5890494 C15.9834639,6.85331071 16.6156877,8.37511235 16.6156877,10.1538481 C16.6156877,11.932887 15.9832619,13.4542339 14.718865,14.7186468 Z" id="Shape"></path>
                        </g>
                    </g>
                </g>
            </g>
        </g>
    </g>
</svg>