<?xml version="1.0" encoding="UTF-8"?>
<svg width="20px" height="20px" viewBox="0 0 20 20" version="1.1" xmlns="http://www.w3.org/2000/svg" xmlns:xlink="http://www.w3.org/1999/xlink">
    <!-- Generator: Sketch 39.1 (31720) - http://www.bohemiancoding.com/sketch -->
    <title>small-calendar</title>
    <desc>Created with Sketch.</desc>
    <defs></defs>
    <g id="mobile" stroke="none" stroke-width="1" fill="none" fill-rule="evenodd">
        <g id="signUpMailForm" transform="translate(-346.000000, -683.000000)" fill="#888888">
            <g id="Group-2" transform="translate(33.000000, 472.000000)">
                <g id="inputEhliyetSeriNo-Copy" transform="translate(0.000000, 198.000000)">
                    <g id="small-calendar" transform="translate(313.000000, 13.000000)">
                        <g id="Capa_1">
                            <g id="calendar_1_">
                                <path d="M18.33375,1.875 L15.625,1.875 L15.625,0.625 C15.625,0.279375 15.345625,0 15,0 C14.654375,0 14.375,0.279375 14.375,0.625 L14.375,1.875 L10.625,1.875 L10.625,0.625 C10.625,0.279375 10.345,0 10,0 C9.655,0 9.375,0.279375 9.375,0.625 L9.375,1.875 L5.625,1.875 L5.625,0.625 C5.625,0.279375 5.345,0 5,0 C4.655,0 4.375,0.279375 4.375,0.625 L4.375,1.875 L1.666875,1.875 C0.74625,1.875 0,2.620625 0,3.54125 L0,18.333125 C0,19.25375 0.74625,20 1.666875,20 L18.33375,20 C19.254375,20 20,19.25375 20,18.333125 L20,3.54125 C20,2.620625 19.254375,1.875 18.33375,1.875 L18.33375,1.875 Z M19.375,18.8613839 C19.375,19.1078125 19.1747768,19.3080357 18.9290179,19.3080357 L1.07165179,19.3080357 C0.825223214,19.3080357 0.625,19.1078125 0.625,18.8613839 L0.625,3.01294643 C0.625,2.7671875 0.825223214,2.56696429 1.07165179,2.56696429 L3.97321429,2.56696429 L3.97321429,3.90625 C3.97321429,4.2765625 4.27321429,4.57589286 4.64285714,4.57589286 C5.0125,4.57589286 5.3125,4.2765625 5.3125,3.90625 L5.3125,2.56696429 L9.33035714,2.56696429 L9.33035714,3.90625 C9.33035714,4.2765625 9.63035714,4.57589286 10,4.57589286 C10.3696429,4.57589286 10.6696429,4.2765625 10.6696429,3.90625 L10.6696429,2.56696429 L14.6875,2.56696429 L14.6875,3.90625 C14.6875,4.2765625 14.9868304,4.57589286 15.3571429,4.57589286 C15.7274554,4.57589286 16.0267857,4.2765625 16.0267857,3.90625 L16.0267857,2.56696429 L18.9290179,2.56696429 C19.1747768,2.56696429 19.375,2.7671875 19.375,3.01294643 L19.375,18.8613839 L19.375,18.8613839 Z" id="Shape"></path>
                                <rect id="Rectangle-path" x="4" y="8" width="1.875" height="1.875"></rect>
                                <rect id="Rectangle-path-Copy-3" x="4" y="11" width="1.875" height="1.875"></rect>
                                <rect id="Rectangle-path-Copy-6" x="4" y="14" width="1.875" height="1.875"></rect>
                                <rect id="Rectangle-path-Copy" x="9" y="8" width="1.875" height="1.875"></rect>
                                <rect id="Rectangle-path-Copy-4" x="9" y="11" width="1.875" height="1.875"></rect>
                                <rect id="Rectangle-path-Copy-7" x="9" y="14" width="1.875" height="1.875"></rect>
                                <rect id="Rectangle-path-Copy-2" x="14" y="8" width="1.875" height="1.875"></rect>
                                <rect id="Rectangle-path-Copy-5" x="14" y="11" width="1.875" height="1.875"></rect>
                                <rect id="Rectangle-path-Copy-8" x="14" y="14" width="1.875" height="1.875"></rect>
                            </g>
                        </g>
                    </g>
                </g>
            </g>
        </g>
    </g>
</svg>