<?xml version="1.0" encoding="UTF-8"?>
<svg width="36px" height="24px" viewBox="0 0 36 24" version="1.1" xmlns="http://www.w3.org/2000/svg" xmlns:xlink="http://www.w3.org/1999/xlink">
    <!-- Generator: Sketch 39.1 (31720) - http://www.bohemiancoding.com/sketch -->
    <title>ucretsiz-yakit</title>
    <desc>Created with Sketch.</desc>
    <defs></defs>
    <g id="mobile" stroke="none" stroke-width="1" fill="none" fill-rule="evenodd">
        <g id="iPhone-6-Plus" transform="translate(-56.000000, -324.000000)" fill="#FF7377">
            <g id="Group-4" transform="translate(15.000000, 302.000000)">
                <g id="ucretsiz-yakit" transform="translate(41.000000, 22.000000)">
                    <path d="M21.4159998,20.603967 C31.3001954,27.3527286 38.8340374,23.0678839 34.4154173,16.2456978 C29.9967972,9.42351167 25.4198516,-6.68609827e-16 17.3508247,0 C9.28179785,6.74199443e-16 0.0821929307,7.27344664 0.0821929307,16.2456978 C0.0821929307,25.2179489 11.5318042,13.8552054 21.4159998,20.603967 Z" id="Oval-2" opacity="0.07"></path>
                    <g id="gas-station" transform="translate(8.585925, 2.800000)">
                        <g id="Layer_1">
                            <ellipse id="Oval" cx="7.42144579" cy="4.36365" rx="0.463825414" ry="0.43635"></ellipse>
                            <ellipse id="Oval" cx="5.56606441" cy="4.36365" rx="0.463825414" ry="0.43635"></ellipse>
                            <ellipse id="Oval" cx="9.27678731" cy="4.36365" rx="0.463825414" ry="0.43635"></ellipse>
                            <path d="M7.79251409,9.7745625 C7.6533585,9.5563875 7.18953308,9.5563875 7.05037749,9.7745625 C6.91122189,9.9927375 5.56610427,11.9127375 5.56610427,13.00365 C5.56610427,14.0073 6.40099799,14.8363875 7.42144579,14.8363875 C8.44189359,14.8363875 9.27678731,14.0073 9.27678731,13.00365 C9.27678731,11.9127375 7.97802832,9.9927375 7.79251409,9.7745625 L7.79251409,9.7745625 Z M7.42144579,13.96365 C6.91122189,13.96365 6.4937551,13.5273 6.4937551,13.00365 C6.4937551,12.52365 6.95758052,11.6073 7.42144579,10.865475 C7.8852712,11.6073 8.34913648,12.52365 8.34913648,13.00365 C8.34913648,13.5272625 7.93166969,13.96365 7.42144579,13.96365 L7.42144579,13.96365 Z" id="Shape"></path>
                            <path d="M20.2698004,5.3672625 L17.9505936,3.1854375 C17.7650395,3.010875 17.4867682,3.010875 17.3012141,3.1854375 C17.11566,3.36 17.11566,3.6217875 17.3012141,3.79635 L18.4608175,4.8872625 C17.9969921,5.1054375 17.6259238,5.5854375 17.6259238,6.1090875 C17.6259238,6.8509125 18.2289048,7.418175 19.0174399,7.418175 C19.202994,7.418175 19.3421097,7.374525 19.4812653,7.3309125 L19.4812653,15.2727375 C19.4812653,16.0145625 18.8782843,16.581825 18.0897492,16.581825 C17.3012141,16.581825 16.6982331,16.0145625 16.6982331,15.2727375 L16.6982331,8.2909125 C16.6982331,7.0690875 15.6777853,6.1090875 14.3790263,6.1090875 L13.4513356,6.1090875 L13.4513356,2.181825 C13.4513755,0.96 12.4309277,0 11.1321687,0 L3.7107229,0 C2.4119639,0 1.3915161,0.96 1.3915161,2.181825 L1.3915161,16.581825 C0.60298101,16.581825 0,17.1490875 0,17.8909125 C0,18.6327375 0.60298101,19.2 1.3915161,19.2 L13.4513356,19.2 C14.2398707,19.2 14.8428517,18.6327375 14.8428517,17.8909125 C14.8428517,17.1490875 14.2398707,16.581825 13.4513356,16.581825 L3.7107229,16.581825 C3.4324117,16.581825 3.24689748,16.7563875 3.24689748,17.018175 C3.24689748,17.2799625 3.43245156,17.454525 3.7107229,17.454525 L13.4513755,17.454525 C13.7296867,17.454525 13.9152009,17.6290875 13.9152009,17.890875 C13.9152009,18.1526625 13.7296468,18.327225 13.4513755,18.327225 L1.3915161,18.327225 C1.11320491,18.327225 0.927690689,18.1526625 0.927690689,17.890875 C0.927690689,17.6290875 1.11324477,17.454525 1.3915161,17.454525 L1.85534152,17.454525 C2.13365271,17.454525 2.31916693,17.2799625 2.31916693,17.018175 L2.31916693,2.181825 C2.31916693,1.44 2.92214794,0.8727375 3.71068303,0.8727375 L11.1321288,0.8727375 C11.9206639,0.8727375 12.5236449,1.44 12.5236449,2.181825 L12.5236449,15.2727375 C12.5236449,15.5345625 12.709199,15.7090875 12.9874703,15.7090875 C13.2657417,15.7090875 13.4512958,15.534525 13.4512958,15.2727375 L13.4512958,6.981825 L14.3789864,6.981825 C15.1675215,6.981825 15.7705025,7.5490875 15.7705025,8.2909125 L15.7705025,15.2727375 C15.7705025,16.4945625 16.7909503,17.4545625 18.0897093,17.4545625 C19.3884683,17.4545625 20.4089161,16.4945625 20.4089161,15.2727375 L20.4089161,5.6727375 C20.408956,5.541825 20.3625575,5.4545625 20.2698004,5.3672625 L20.2698004,5.3672625 Z M19.0174399,6.5454375 C18.7391287,6.5454375 18.5536145,6.370875 18.5536145,6.1090875 C18.5536145,5.8472625 18.7391686,5.6727375 19.0174399,5.6727375 C19.2957112,5.6727375 19.4812653,5.8473 19.4812653,6.1090875 C19.4812653,6.3709125 19.2957511,6.5454375 19.0174399,6.5454375 L19.0174399,6.5454375 Z" id="Shape"></path>
                            <path d="M11.1321687,1.7454375 L3.7107229,1.7454375 C3.4324117,1.7454375 3.24689748,1.92 3.24689748,2.1817875 L3.24689748,6.5454375 C3.24689748,6.8072625 3.43245156,6.9817875 3.7107229,6.9817875 L11.1321687,6.9817875 C11.4104799,6.9817875 11.5959941,6.807225 11.5959941,6.5454375 L11.5959941,2.181825 C11.5959941,1.92 11.4104799,1.7454375 11.1321687,1.7454375 L11.1321687,1.7454375 Z M10.6683034,6.1090875 L4.17454831,6.1090875 L4.17454831,2.618175 L10.6683034,2.618175 L10.6683034,6.1090875 L10.6683034,6.1090875 Z" id="Shape"></path>
                        </g>
                    </g>
                </g>
            </g>
        </g>
    </g>
</svg>