<?xml version="1.0" encoding="iso-8859-1"?>
<!-- Generator: Adobe Illustrator 16.0.0, SVG Export Plug-In . SVG Version: 6.00 Build 0)  -->
<!DOCTYPE svg PUBLIC "-//W3C//DTD SVG 1.1//EN" "http://www.w3.org/Graphics/SVG/1.1/DTD/svg11.dtd">
<svg xmlns="http://www.w3.org/2000/svg" xmlns:xlink="http://www.w3.org/1999/xlink" version="1.1" id="Capa_1" x="0px" y="0px" width="512px" height="512px" viewBox="0 0 612 612" style="enable-background:new 0 0 612 612;" xml:space="preserve">
<g>
	<g id="Calendar_2_">
		<g>
			<path d="M478.125,401.625h-76.5v76.5h76.5V401.625z M344.25,248.625h-76.5v76.5h76.5V248.625z M344.25,401.625h-76.5v76.5h76.5     V401.625z M478.125,248.625h-76.5v76.5h76.5V248.625z M592.875,0H19.125C8.568,0,0,8.568,0,19.125v573.75     C0,603.432,8.568,612,19.125,612h573.75c10.557,0,19.125-8.568,19.125-19.125V19.125C612,8.568,603.432,0,592.875,0z      M573.75,573.75H38.25V153h535.5V573.75z M573.75,114.75H38.25v-76.5h535.5V114.75z M210.375,401.625h-76.5v76.5h76.5V401.625z      M210.375,248.625h-76.5v76.5h76.5V248.625z" fill="#888888"/>
		</g>
	</g>
</g>
<g>
</g>
<g>
</g>
<g>
</g>
<g>
</g>
<g>
</g>
<g>
</g>
<g>
</g>
<g>
</g>
<g>
</g>
<g>
</g>
<g>
</g>
<g>
</g>
<g>
</g>
<g>
</g>
<g>
</g>
</svg>
