<?xml version="1.0" encoding="UTF-8"?>
<svg width="26px" height="24px" viewBox="0 0 26 24" version="1.1" xmlns="http://www.w3.org/2000/svg" xmlns:xlink="http://www.w3.org/1999/xlink">
    <!-- Generator: Sketch 39.1 (31720) - http://www.bohemiancoding.com/sketch -->
    <title>yol-yardim</title>
    <desc>Created with Sketch.</desc>
    <defs></defs>
    <g id="mobile" stroke="none" stroke-width="1" fill="none" fill-rule="evenodd">
        <g id="iPhone-6-Plus" transform="translate(-327.000000, -324.000000)" fill="#FF7377">
            <g id="yol-yardim" transform="translate(327.200000, 324.000000)">
                <path d="M14.2271307,23.5472643 C23.8479589,26.9675122 29.2707078,9.88649706 22.4292913,9.88649706 C15.5878747,9.88649706 20.7267474,0.0100699086 14.2271307,0.0100699086 C7.72751394,0.0100699086 -1.70530257e-13,-0.513306168 -1.70530257e-13,5.98631058 C-1.70530257e-13,12.4859273 4.60630249,20.1270164 14.2271307,23.5472643 Z" id="Oval-3" fill-opacity="0.07"></path>
                <g id="Group-5" transform="translate(1.600000, 2.400000)" opacity="0.600000024">
                    <g id="road-perspective-of-curves_dimjcr">
                        <g id="road-perspective-of-curves">
                            <g id="Page-1">
                                <g id="road-perspective-of-curves">
                                    <g id="Shape_19_1_">
                                        <path d="M7.27902531,7.83328987 C6.9244838,7.00489868 6.61820256,6.28956476 6.81943342,5.09586608 C7.18457348,2.93283524 10.9651121,0.484821145 15.1025726,0.694188546 L15.1374572,0.0132511013 C10.5808153,-0.212835242 6.55832356,2.49769163 6.13911387,4.98385198 C5.90469876,6.37265198 6.28043738,7.25007225 6.64387714,8.09887577 C6.91765425,8.73862203 7.20100974,9.39982379 7.24686124,10.3317145 C7.3194075,11.7961022 2.84690226,14.1409551 0.0109386157,15.2747419 L0.269668049,15.9063119 C1.06668506,15.5879753 8.05555367,12.7232 7.93610739,10.298333 C7.88407812,9.24557533 7.5627492,8.49516828 7.27902531,7.83328987 L7.27902531,7.83328987 L7.27902531,7.83328987 Z M17.334532,12.6030097 C17.1918199,10.7123313 16.1891229,8.89115066 14.7962914,7.96337621 C12.3600123,6.34065198 12.1676797,5.47620088 12.6823897,4.60729515 C13.8671608,2.60767577 16.9313902,2.57841057 16.9313902,2.57841057 L16.9313902,1.89710661 C16.9313902,1.89710661 13.4732573,1.92400352 12.0875671,4.26341498 C11.0674137,5.98521233 12.6348096,7.33110132 14.4331634,8.5289163 C15.6572681,9.34433833 16.5306288,10.9633128 16.6582932,12.6537868 C16.7712216,14.1511894 16.3783383,16.4143366 13.8647237,18.6911013 L14.3308335,19.1936282 C17.0477476,16.7319683 17.4590792,14.250911 17.334532,12.6030097 L17.334532,12.6030097 L17.334532,12.6030097 Z M7.54940182,17.3471859 L7.71025048,18.0097692 C7.72529816,18.0060194 8.08292855,17.9201974 8.58188245,17.6927859 L8.29305766,17.0737903 C7.8608123,17.2709216 7.55246236,17.3461709 7.54940182,17.3471859 L7.54940182,17.3471859 L7.54940182,17.3471859 Z M9.83987993,8.19078767 C10.1174261,8.67699031 10.4093397,9.19995771 10.6516329,9.77401233 L11.2881697,9.51183789 C11.0311689,8.90273833 10.7286566,8.36000705 10.4404836,7.85609868 L9.83987993,8.19078767 L9.83987993,8.19078767 L9.83987993,8.19078767 Z M9.61470315,4.77955947 L8.98502428,4.50207577 C8.84231219,4.81804405 8.77285481,5.13435066 8.77285481,5.46937797 C8.77285481,5.80000705 8.84197213,6.14487401 8.98397576,6.52520881 L9.63113941,6.2889163 C9.51787089,5.98588899 9.46278108,5.7179348 9.46278108,5.46937797 C9.46275274,5.23170396 9.51237325,5.00632247 9.61470315,4.77955947 L9.61470315,4.77955947 L9.61470315,4.77955947 Z M9.72624302,16.1327084 L10.1964901,16.6311753 C10.6855256,16.1810608 11.076992,15.6598132 11.3607159,15.0806555 L10.7399353,14.7837744 C10.4935047,15.2863013 10.152679,15.7401374 9.72624302,16.1327084 L9.72624302,16.1327084 L9.72624302,16.1327084 Z M11.8233967,11.327267 L11.1423687,11.4365463 C11.1759213,11.6415154 11.2002073,11.849896 11.2145749,12.0565568 C11.2252018,12.21557 11.2306711,12.370467 11.2306711,12.5209656 C11.2306711,12.7368176 11.2197041,12.9506396 11.1978269,13.1562855 L11.8839842,13.2274467 C11.9082701,12.9979489 11.9205973,12.7606414 11.9205973,12.5209374 C11.9205973,12.3558062 11.914788,12.1859101 11.9028008,12.0105445 C11.8870447,11.7827947 11.8603499,11.5526485 11.8233967,11.327267 L11.8233967,11.327267 L11.8233967,11.327267 Z M10.9842688,2.46808811 C10.7207502,2.64376388 10.4791655,2.82014449 10.2656075,2.99207048 L10.7006016,3.52050749 C10.8983752,3.3618326 11.1239204,3.19740617 11.3703226,3.03258502 L10.9842688,2.46808811 L10.9842688,2.46808811 L10.9842688,2.46808811 Z" id="Shape"></path>
                                    </g>
                                </g>
                            </g>
                        </g>
                    </g>
                    <g id="road-perspective-of-curves_dimjcr-copy">
                        <g id="road-perspective-of-curves">
                            <g id="Page-1">
                                <g id="road-perspective-of-curves">
                                    <g id="Shape_19_1_">
                                        <path d="M7.27902531,7.83328987 C6.9244838,7.00489868 6.61820256,6.28956476 6.81943342,5.09586608 C7.18457348,2.93283524 10.9651121,0.484821145 15.1025726,0.694188546 L15.1374572,0.0132511013 C10.5808153,-0.212835242 6.55832356,2.49769163 6.13911387,4.98385198 C5.90469876,6.37265198 6.28043738,7.25007225 6.64387714,8.09887577 C6.91765425,8.73862203 7.20100974,9.39982379 7.24686124,10.3317145 C7.3194075,11.7961022 2.84690226,14.1409551 0.0109386157,15.2747419 L0.269668049,15.9063119 C1.06668506,15.5879753 8.05555367,12.7232 7.93610739,10.298333 C7.88407812,9.24557533 7.5627492,8.49516828 7.27902531,7.83328987 L7.27902531,7.83328987 L7.27902531,7.83328987 Z M17.334532,12.6030097 C17.1918199,10.7123313 16.1891229,8.89115066 14.7962914,7.96337621 C12.3600123,6.34065198 12.1676797,5.47620088 12.6823897,4.60729515 C13.8671608,2.60767577 16.9313902,2.57841057 16.9313902,2.57841057 L16.9313902,1.89710661 C16.9313902,1.89710661 13.4732573,1.92400352 12.0875671,4.26341498 C11.0674137,5.98521233 12.6348096,7.33110132 14.4331634,8.5289163 C15.6572681,9.34433833 16.5306288,10.9633128 16.6582932,12.6537868 C16.7712216,14.1511894 16.3783383,16.4143366 13.8647237,18.6911013 L14.3308335,19.1936282 C17.0477476,16.7319683 17.4590792,14.250911 17.334532,12.6030097 L17.334532,12.6030097 L17.334532,12.6030097 Z M7.54940182,17.3471859 L7.71025048,18.0097692 C7.72529816,18.0060194 8.08292855,17.9201974 8.58188245,17.6927859 L8.29305766,17.0737903 C7.8608123,17.2709216 7.55246236,17.3461709 7.54940182,17.3471859 L7.54940182,17.3471859 L7.54940182,17.3471859 Z M9.83987993,8.19078767 C10.1174261,8.67699031 10.4093397,9.19995771 10.6516329,9.77401233 L11.2881697,9.51183789 C11.0311689,8.90273833 10.7286566,8.36000705 10.4404836,7.85609868 L9.83987993,8.19078767 L9.83987993,8.19078767 L9.83987993,8.19078767 Z M9.61470315,4.77955947 L8.98502428,4.50207577 C8.84231219,4.81804405 8.77285481,5.13435066 8.77285481,5.46937797 C8.77285481,5.80000705 8.84197213,6.14487401 8.98397576,6.52520881 L9.63113941,6.2889163 C9.51787089,5.98588899 9.46278108,5.7179348 9.46278108,5.46937797 C9.46275274,5.23170396 9.51237325,5.00632247 9.61470315,4.77955947 L9.61470315,4.77955947 L9.61470315,4.77955947 Z M9.72624302,16.1327084 L10.1964901,16.6311753 C10.6855256,16.1810608 11.076992,15.6598132 11.3607159,15.0806555 L10.7399353,14.7837744 C10.4935047,15.2863013 10.152679,15.7401374 9.72624302,16.1327084 L9.72624302,16.1327084 L9.72624302,16.1327084 Z M11.8233967,11.327267 L11.1423687,11.4365463 C11.1759213,11.6415154 11.2002073,11.849896 11.2145749,12.0565568 C11.2252018,12.21557 11.2306711,12.370467 11.2306711,12.5209656 C11.2306711,12.7368176 11.2197041,12.9506396 11.1978269,13.1562855 L11.8839842,13.2274467 C11.9082701,12.9979489 11.9205973,12.7606414 11.9205973,12.5209374 C11.9205973,12.3558062 11.914788,12.1859101 11.9028008,12.0105445 C11.8870447,11.7827947 11.8603499,11.5526485 11.8233967,11.327267 L11.8233967,11.327267 L11.8233967,11.327267 Z M10.9842688,2.46808811 C10.7207502,2.64376388 10.4791655,2.82014449 10.2656075,2.99207048 L10.7006016,3.52050749 C10.8983752,3.3618326 11.1239204,3.19740617 11.3703226,3.03258502 L10.9842688,2.46808811 L10.9842688,2.46808811 L10.9842688,2.46808811 Z" id="Shape"></path>
                                    </g>
                                </g>
                            </g>
                        </g>
                    </g>
                </g>
            </g>
        </g>
    </g>
</svg>