<?xml version="1.0" encoding="UTF-8"?>
<svg width="155px" height="30px" viewBox="0 0 155 30" version="1.1" xmlns="http://www.w3.org/2000/svg" xmlns:xlink="http://www.w3.org/1999/xlink">
    <!-- Generator: Sketch 39.1 (31720) - http://www.bohemiancoding.com/sketch -->
    <title>logo</title>
    <desc>Created with Sketch.</desc>
    <defs></defs>
    <g id="desktop" stroke="none" stroke-width="1" fill="none" fill-rule="evenodd">
        <g id="Artboard-2" transform="translate(-64.000000, -129.000000)" fill="#FF7377">
            <g id="logo" transform="translate(64.000000, 129.000000)">
                <text id="aracla.com" font-family="VolteRounded-Semibold, Volte Rounded" font-size="20" font-weight="500">
                    <tspan x="52" y="23">aracla.com</tspan>
                </text>
                <g id="_2356168480480">
                    <g>
                        <g id="Group">
                            <g transform="translate(1.539952, 0.000000)" id="Shape">
                                <path d="M5.4657439,16.6003558 C5.4657439,16.5138957 5.45489917,16.3842054 5.45489917,16.2220925 C5.42236498,14.7522694 5.94291202,13.6066719 6.77795622,12.7853001 C7.6021557,11.9855434 8.70831816,11.5316274 9.85785953,11.4235522 C9.93377264,11.4235522 10.0639094,11.4127446 10.2157356,11.4127446 C11.2893639,11.3911296 12.44975,11.6505102 13.3498626,12.288154 C14.1740621,12.8717603 14.7813669,13.7255546 14.9548826,14.9035747 C15.0416405,15.4547584 15.1283983,15.9519044 15.2368456,16.3625903 C15.3452929,16.7192386 15.4754296,17.0326568 15.6489453,17.2920373 C16.1152687,17.9512963 16.7442631,18.4592499 17.47086,18.7942831 C18.2516805,19.1617389 19.1517931,19.3346592 20.0627504,19.3238517 C20.8327262,19.3130442 21.6027021,19.1833539 22.4160568,18.751053 C23.131809,18.3727897 23.9017848,17.7567608 24.7693632,16.8056988 C23.7065797,15.2494154 21.646081,11.5964725 22.9691381,8.07321993 C24.1620583,4.89580807 26.8190172,3.49083004 28.3698136,2.90722378 C28.3481241,1.37255546 29.6820259,0 29.6928706,0 L31.3304248,1.57789841 C31.3304248,1.57789841 30.4194675,2.51815294 30.6797411,2.97206892 L36.0045035,8.99185942 L36.6877214,9.7700011 L35.9719693,10.5265277 L34.0632968,12.5583421 L33.4993708,13.1527559 L32.7619292,12.8177227 L28.554174,10.904791 L28.4999503,10.883176 C28.4999503,10.883176 26.8949303,10.0942268 27.4588563,7.43557606 L29.6820259,7.90029956 C29.5193549,8.68924876 29.5301997,8.82974657 29.5410444,8.86216914 L32.9571343,10.407645 L33.6078181,9.726771 L29.3892182,4.94984569 C28.3047452,5.30649396 26.0598861,6.32240115 25.1055499,8.86216914 C23.8258717,12.2557315 27.0901354,16.1140173 27.1009802,16.1248248 L27.708285,16.8381214 L27.1118249,17.5730329 C25.7887678,19.1833539 24.6066923,20.1668385 23.4788404,20.7612523 C22.2967648,21.3772812 21.2014471,21.5718166 20.1061293,21.5934316 C18.8481407,21.6150467 17.6009967,21.3664736 16.505679,20.8477125 C15.421206,20.3397589 14.4777145,19.5940398 13.7836518,18.5997477 C13.4474651,18.1134091 13.2197258,17.5730329 13.0462101,16.9678116 C12.8943839,16.4166279 12.7859366,15.8438292 12.6991788,15.2494154 C12.6232657,14.7414618 12.3738369,14.3848136 12.0376503,14.147048 C11.5604821,13.8012073 10.8989536,13.6607095 10.2699593,13.6823245 C10.2482698,13.6823245 10.1723567,13.6823245 10.0530647,13.6931321 C9.40238087,13.7471697 8.80592073,13.9957427 8.37213153,14.4064286 C7.97087652,14.806307 7.710603,15.4007208 7.73229246,16.1680549 C7.73229246,16.2004775 7.73229246,16.2869377 7.74313719,16.4058204 L5.4657439,16.6003558 L5.4657439,16.6003558 Z"></path>
                                <path d="M1.72431206,16.4922806 C2.92807709,18.6537853 4.51140766,20.5775244 6.38754595,22.1770379 C8.81676546,17.2379997 13.9137885,13.8336299 19.8133216,13.8336299 C25.7128547,13.8336299 30.8207225,17.2379997 33.2499421,22.1770379 C35.1260803,20.5775244 36.7094109,18.6537853 37.9023312,16.4922806 L39.637488,17.1083094 C38.2168284,19.7453451 36.2864664,22.0581551 33.976539,23.9278567 C33.9223153,23.9710868 33.8680917,24.0143169 33.8247127,24.0575469 C33.7379549,24.1223921 33.6511971,24.1872372 33.5644392,24.2520824 C33.4993708,24.30612 33.4451472,24.3493501 33.3800788,24.3925802 C33.3041657,24.4574253 33.2282526,24.5114629 33.1414948,24.5763081 C33.0764264,24.6195382 33.0005133,24.6735758 32.9354449,24.7276134 C32.8595318,24.781651 32.7944634,24.8248811 32.7185503,24.8789187 C32.6426372,24.9329563 32.5558793,24.986994 32.4691215,25.0410316 C32.4148978,25.0842617 32.3498295,25.1274918 32.2847611,25.1707219 C32.1980032,25.235567 32.1004007,25.2896046 32.0136428,25.3544497 C28.4999503,27.6240296 24.3138846,28.93174 19.8133216,28.93174 C15.3236034,28.93174 11.1375377,27.6240296 7.62384516,25.3544497 C7.52624259,25.2896046 7.43948475,25.235567 7.34188218,25.1707219 C7.28765853,25.1274918 7.22259015,25.0842617 7.15752177,25.0410316 C7.08160866,24.986994 6.99485082,24.9329563 6.90809298,24.8789187 C6.8430246,24.8248811 6.77795622,24.781651 6.70204311,24.7276134 C6.63697473,24.6735758 6.56106162,24.6195382 6.49599324,24.5763081 C6.40923541,24.5114629 6.3333223,24.4574253 6.24656446,24.3925802 C6.19234081,24.3493501 6.12727243,24.30612 6.07304878,24.2520824 C5.98629094,24.1872372 5.8995331,24.1223921 5.81277526,24.0575469 C5.75855161,24.0143169 5.71517269,23.9710868 5.66094904,23.9278567 C3.35102156,22.0581551 1.42065962,19.7453451 0,17.1083094 L1.72431206,16.4922806 L1.72431206,16.4922806 Z M31.3738038,23.603631 C29.4109076,19.1941614 24.9754131,16.1248248 19.8133216,16.1248248 C14.6620749,16.1248248 10.2265804,19.1941614 8.2528395,23.603631 C11.5604821,25.8299808 15.5296533,27.1268836 19.8133216,27.1268836 C24.09699,27.1268836 28.0770059,25.8299808 31.3738038,23.603631 L31.3738038,23.603631 Z"></path>
                            </g>
                            <path d="M2.75456141,15.5412186 C6.24656446,22.2310755 13.2631047,26.8134654 21.3532733,26.8134654 C29.4542866,26.8134654 36.4708268,22.2310755 39.9519852,15.5412186 L42.7173913,17.1515395 C38.672307,24.7924585 30.6255174,29.9908773 21.3532733,29.9908773 C12.0918739,29.9908773 4.04508427,24.7924585 0,17.1515395 L2.75456141,15.5412186 L2.75456141,15.5412186 Z" id="Shape"></path>
                            <path d="M41.3075764,16.3301678 L41.524471,16.459858 L41.4919368,16.5138957 L41.4268684,16.6327784 L41.3618001,16.7516612 L41.3618001,16.7516612 L41.1449055,16.6327784 L41.1449055,16.6327784 L41.2099738,16.5138957 L41.2750422,16.3950129 L41.3075764,16.3301678 L41.3075764,16.3301678 Z M1.61586476,17.2379997 L1.84360409,17.1083094 L1.90867247,17.2271922 L1.97374085,17.3352674 L2.03880923,17.4541502 L2.11472234,17.5730329 L2.17979072,17.6919157 L2.25570383,17.7999909 L2.33161694,17.9188737 L2.39668532,18.0269489 L2.47259843,18.1458317 L2.49428789,18.1782543 L2.28823802,18.3187521 L2.25570383,18.275522 L2.19063545,18.1674467 L2.11472234,18.048564 L2.03880923,17.9296812 L1.96289612,17.821606 L1.89782774,17.7027232 L1.82191463,17.5838405 L1.75684625,17.4649577 L1.68093314,17.346075 L1.61586476,17.2379997 L1.61586476,17.2379997 Z M3.0039902,19.3562743 L3.21004007,19.204969 L3.24257426,19.2481991 L3.3293321,19.3562743 L3.40524521,19.4643495 L3.49200305,19.5724248 L3.56791616,19.6805 L3.654674,19.7885752 L3.74143184,19.8966505 L3.81734495,19.9939182 L3.90410278,20.1019934 L3.98001589,20.1992611 L3.78481076,20.361374 L3.70889765,20.2641063 L3.62213981,20.156031 L3.53538197,20.0479558 L3.45946886,19.9398806 L3.37271102,19.8318053 L3.28595318,19.7237301 L3.21004007,19.6156549 L3.12328223,19.5075796 L3.03652439,19.3995044 L3.0039902,19.3562743 L3.0039902,19.3562743 Z M4.63069969,21.312436 L4.8150601,21.1395156 L4.88012848,21.2151683 L4.97773105,21.312436 L5.06448889,21.4097037 L5.16209146,21.5069714 L5.25969403,21.6042392 L5.34645187,21.7015069 L5.44405444,21.7987746 L5.54165701,21.8960423 L5.63925958,21.99331 L5.69348323,22.0365401 L5.50912282,22.220268 L5.4657439,22.1662304 L5.36814133,22.0689627 L5.27053876,21.9825025 L5.17293619,21.8852348 L5.07533362,21.787967 L4.97773105,21.6906993 L4.88012848,21.5934316 L4.79337064,21.4853564 L4.69576807,21.3880887 L4.63069969,21.312436 L4.63069969,21.312436 Z M6.45261432,23.0740623 L6.61528527,22.8903344 L6.62613,22.901142 L6.7345773,22.9876021 L6.83217987,23.0740623 L6.94062717,23.1605225 L7.03822974,23.2469827 L7.14667704,23.3334429 L7.25512434,23.4199031 L7.36357164,23.5063633 L7.46117421,23.5820159 L7.56962151,23.6684761 L7.59131097,23.6792836 L7.43948475,23.8846266 L7.41779529,23.8630115 L7.30934799,23.7873589 L7.20090069,23.7008987 L7.09245339,23.6144385 L6.98400609,23.5279783 L6.88640352,23.4415181 L6.77795622,23.3550579 L6.66950892,23.2685977 L6.57190635,23.1821376 L6.46345905,23.0956774 L6.45261432,23.0740623 L6.45261432,23.0740623 Z M8.45888937,24.6303457 L8.59987086,24.4250027 L8.66493924,24.4574253 L8.77338654,24.5438855 L8.89267857,24.6087306 L9.00112587,24.6843833 L9.10957316,24.760036 L9.22886519,24.8356886 L9.34815722,24.9113413 L9.45660452,24.9761864 L9.57589655,25.0518391 L9.66265439,25.1058767 L9.53251763,25.3220272 L9.44575979,25.2679896 L9.32646776,25.1923369 L9.20717573,25.1166842 L9.0878837,25.0518391 L8.97943641,24.9761864 L8.86014438,24.9005338 L8.75169708,24.8248811 L8.63240505,24.7492284 L8.52395775,24.6735758 L8.45888937,24.6303457 L8.45888937,24.6303457 Z M10.6278354,25.9488635 L10.7471274,25.7219055 L10.7471274,25.7219055 L10.8664194,25.7867507 L10.9965562,25.8515958 L11.1158482,25.916441 L11.2351402,25.9812861 L11.3544323,26.0353237 L11.4737243,26.1001689 L11.6038611,26.1542065 L11.7231531,26.2190516 L11.8532898,26.2730892 L11.8749793,26.2838968 L11.766532,26.5108547 L11.7448425,26.5000472 L11.6147058,26.4460096 L11.4954138,26.3811645 L11.365277,26.3271268 L11.245985,26.2622817 L11.1158482,26.1974366 L10.9965562,26.143399 L10.8772641,26.0785538 L10.7579721,26.0137087 L10.6278354,25.9488635 L10.6278354,25.9488635 L10.6278354,25.9488635 Z M12.9377628,27.0188083 L13.0245207,26.7810428 L13.1112785,26.8134654 L13.2305705,26.867503 L13.3607073,26.9107331 L13.4908441,26.9647707 L13.6209808,27.0080008 L13.7511176,27.0512309 L13.8812543,27.1052685 L14.0113911,27.1484986 L14.1415279,27.1917287 L14.2065962,27.2133438 L14.1306831,27.4511093 L14.05477,27.4294942 L13.9246333,27.3862641 L13.7944965,27.343034 L13.6643597,27.2889964 L13.534223,27.2457663 L13.4040862,27.1917287 L13.2739495,27.1484986 L13.1438127,27.094461 L13.0136759,27.0512309 L12.9377628,27.0188083 L12.9377628,27.0188083 Z M15.3452929,27.8185651 L15.4103613,27.5807996 L15.4645849,27.5916071 L15.5947217,27.6240296 L15.7357032,27.6672597 L15.8658399,27.6996823 L16.0068214,27.7321049 L16.1369582,27.7645275 L16.2779397,27.79695 L16.4080764,27.8293726 L16.5490579,27.8509876 L16.6358158,27.8726027 L16.5815921,28.1211757 L16.4948343,28.0995607 L16.3538528,28.0671381 L16.223716,28.0347155 L16.0827345,28.002293 L15.941753,27.9698704 L15.8116163,27.9374478 L15.6706348,27.9050253 L15.5296533,27.8726027 L15.3995165,27.8401801 L15.3452929,27.8185651 L15.3452929,27.8185651 Z M17.8287361,28.3481337 L17.872115,28.0995607 L17.9263386,28.1103682 L18.0673201,28.1319832 L18.2083016,28.1535983 L18.3492831,28.1752133 L18.4902646,28.1860209 L18.6312461,28.2076359 L18.7722276,28.2184434 L18.913209,28.2400585 L19.0541905,28.250866 L19.1192589,28.2616735 L19.0975695,28.5102466 L19.0325011,28.499439 L18.8915196,28.4886315 L18.7396934,28.477824 L18.5987119,28.4562089 L18.4577304,28.4345939 L18.3167489,28.4237864 L18.1757674,28.4021713 L18.0347859,28.3805563 L17.8938044,28.3589412 L17.8287361,28.3481337 L17.8287361,28.3481337 Z M20.3664029,28.5967067 L20.3772476,28.3481337 L20.4856949,28.3481337 L20.6266764,28.3589412 L20.7785026,28.3589412 L20.9194841,28.3589412 L21.0713103,28.3697488 L21.2122918,28.3697488 L21.3532733,28.3697488 L21.5050995,28.3697488 L21.6352363,28.3697488 L21.6352363,28.6183218 L21.5050995,28.6183218 L21.3532733,28.6183218 L21.2122918,28.6183218 L21.0604656,28.6183218 L20.9194841,28.6183218 L20.7676579,28.6183218 L20.6266764,28.6075143 L20.4748502,28.6075143 L20.3664029,28.5967067 L20.3664029,28.5967067 Z M22.9040697,28.5642842 L22.8932249,28.3157111 L22.9474486,28.3157111 L23.0884301,28.3049036 L23.2294116,28.2940961 L23.3703931,28.2832886 L23.5113745,28.2616735 L23.6632008,28.250866 L23.8041823,28.2400585 L23.9451637,28.2184434 L24.0861452,28.2076359 L24.1403689,28.1968284 L24.1729031,28.4454014 L24.1078347,28.4562089 L23.9668532,28.477824 L23.8258717,28.4886315 L23.6848902,28.499439 L23.5439087,28.5210541 L23.3920825,28.5318616 L23.251101,28.5426691 L23.1101195,28.5534767 L22.9582933,28.5642842 L22.9040697,28.5642842 L22.9040697,28.5642842 Z M25.4308918,28.2616735 L25.3875128,28.0131005 L25.4742707,27.9914854 L25.6152522,27.9698704 L25.7562337,27.9374478 L25.8972151,27.9158328 L26.0273519,27.8834102 L26.1683334,27.8509876 L26.2984701,27.8293726 L26.4394516,27.79695 L26.5804331,27.7645275 L26.6129673,27.7537199 L26.6780357,28.002293 L26.6346568,28.002293 L26.4936753,28.0347155 L26.3635385,28.0671381 L26.222557,28.0995607 L26.0815755,28.1319832 L25.9405941,28.1644058 L25.7996126,28.1860209 L25.6694758,28.2184434 L25.5284943,28.2400585 L25.4308918,28.2616735 L25.4308918,28.2616735 Z M27.9034902,27.6672597 L27.8275771,27.4294942 L27.9143349,27.3970717 L28.0444717,27.3646491 L28.1854532,27.321419 L28.3155899,27.2781889 L28.4457267,27.2349588 L28.5758634,27.1917287 L28.7060002,27.1484986 L28.836137,27.1052685 L28.9662737,27.0512309 L29.0204974,27.0296159 L29.1072552,27.2673814 L29.0530316,27.2889964 L28.9228948,27.343034 L28.792758,27.3862641 L28.6517765,27.4294942 L28.5216398,27.4727243 L28.391503,27.5159544 L28.2613663,27.5591845 L28.1203848,27.6024146 L27.990248,27.6456447 L27.9034902,27.6672597 L27.9034902,27.6672597 Z M30.2893308,26.8026579 L30.1917282,26.5756999 L30.2459519,26.5540848 L30.3652439,26.5000472 L30.4953806,26.4460096 L30.6146727,26.391972 L30.7448094,26.3271268 L30.8641015,26.2730892 L30.9942382,26.2190516 L31.1135302,26.1542065 L31.2328223,26.1001689 L31.3304248,26.0461312 L31.4497169,26.2730892 L31.3521143,26.3271268 L31.2219775,26.3811645 L31.1026855,26.4460096 L30.9725488,26.5000472 L30.842412,26.5648924 L30.72312,26.61893 L30.5929832,26.6729676 L30.4736912,26.7270052 L30.3435544,26.7810428 L30.2893308,26.8026579 L30.2893308,26.8026579 Z M32.5667241,25.6786754 L32.447432,25.462525 L32.5558793,25.3976798 L32.6751714,25.3328347 L32.7944634,25.257182 L32.9137554,25.1923369 L33.0222027,25.1166842 L33.1414948,25.0518391 L33.2607868,24.9761864 L33.3692341,24.9113413 L33.4885261,24.8356886 L33.5210603,24.8140736 L33.6620418,25.030224 L33.6186629,25.0518391 L33.5102156,25.1166842 L33.3909235,25.1923369 L33.2716315,25.2679896 L33.1523395,25.3328347 L33.0438922,25.4084874 L32.9246002,25.4733325 L32.8053081,25.5489852 L32.6860161,25.6138303 L32.5667241,25.6786754 L32.5667241,25.6786754 Z M34.7031359,24.30612 L34.5621544,24.100777 L34.6055333,24.0683545 L34.7139806,23.9927018 L34.8224279,23.9170491 L34.9308752,23.830589 L35.0393225,23.7549363 L35.1477698,23.6684761 L35.2453724,23.5820159 L35.3538197,23.5063633 L35.462267,23.4199031 L35.5598695,23.3442504 L35.7116958,23.5387858 L35.6249379,23.6144385 L35.5164906,23.7008987 L35.4080433,23.7873589 L35.299596,23.8630115 L35.1911487,23.9494717 L35.0827014,24.0359319 L34.9742541,24.1115846 L34.8658068,24.1980448 L34.7573595,24.2736974 L34.7031359,24.30612 L34.7031359,24.30612 Z M36.6768767,22.7066065 L36.503361,22.5228786 L36.5901189,22.447226 L36.6877214,22.3607658 L36.785324,22.2634981 L36.8829266,22.1770379 L36.9805292,22.0797702 L37.0781317,21.99331 L37.1757343,21.8960423 L37.2733369,21.7987746 L37.3600947,21.7015069 L37.4143184,21.6582768 L37.5986788,21.8311971 L37.5444551,21.8852348 L37.4468525,21.9825025 L37.34925,22.0689627 L37.2516474,22.1662304 L37.1540448,22.2634981 L37.0564423,22.3607658 L36.9588397,22.447226 L36.8612371,22.5444937 L36.7636346,22.6417614 L36.6768767,22.7066065 L36.6768767,22.7066065 Z M38.4554124,20.9017501 L38.271052,20.7396373 L38.2818968,20.7180222 L38.3686546,20.6207545 L38.4554124,20.5126793 L38.553015,20.4154116 L38.6397728,20.3073364 L38.7265307,20.2100686 L38.8024438,20.1019934 L38.8892016,19.9939182 L38.9759595,19.8966505 L39.0627173,19.7885752 L39.073562,19.7777677 L39.2687672,19.929073 L39.2579224,19.9398806 L39.1711646,20.0479558 L39.0844068,20.156031 L39.0084937,20.2641063 L38.9217358,20.3721815 L38.8241332,20.4694492 L38.7373754,20.5775244 L38.6506176,20.6855997 L38.5638597,20.7828674 L38.4771019,20.8909426 L38.4554124,20.9017501 L38.4554124,20.9017501 Z M40.0278983,18.9131658 L39.8218484,18.7618605 L39.8652273,18.7078229 L39.9411404,18.5889401 L40.0170535,18.4808649 L40.0929667,18.3727897 L40.1688798,18.2539069 L40.2447929,18.1458317 L40.3098613,18.0269489 L40.3857744,17.9188737 L40.4616875,17.7999909 L40.5159111,17.7135307 L40.721961,17.8540286 L40.6785821,17.9296812 L40.602669,18.048564 L40.5267559,18.1674467 L40.4508427,18.275522 L40.3749296,18.3944047 L40.2990165,18.5132875 L40.2231034,18.6213627 L40.1471903,18.7402455 L40.0712772,18.8483207 L40.0278983,18.9131658 L40.0278983,18.9131658 Z" id="Shape"></path>
                        </g>
                    </g>
                </g>
            </g>
        </g>
    </g>
</svg>